<svg xmlns="http://www.w3.org/2000/svg" xmlns:xlink="http://www.w3.org/1999/xlink" width="381" height="83" viewBox="0 0 381 83">
  <defs>
    <clipPath id="clip-path">
      <rect id="Rectángulo_145" data-name="Rectángulo 145" width="56.047" height="60.193" fill="#8fe3ff"/>
    </clipPath>
  </defs>
  <g id="Grupo_256" data-name="Grupo 256" transform="translate(-770 -3629)">
    <rect id="Rectángulo_143" data-name="Rectángulo 143" width="381" height="83" rx="20" transform="translate(770 3629)" fill="#00214a"/>
    <text id="Constancia_formación_presencial" data-name="Constancia formación
presencial" transform="translate(889 3665)" fill="#a6faff" font-size="20" font-family="OpenSans-Bold, Open Sans" font-weight="700"><tspan x="0" y="0">Constancia formación</tspan><tspan x="0" y="27">presencial</tspan></text>
    <g id="Grupo_227" data-name="Grupo 227" transform="translate(812.977 3637)">
      <g id="Grupo_226" data-name="Grupo 226" clip-path="url(#clip-path)">
        <path id="Trazado_353" data-name="Trazado 353" d="M44.914,22.094v.611q0,11.508,0,23.016c0,.871,0,.872.9.872,2.1,0,4.2,0,6.295,0a1.926,1.926,0,0,1,2.164,2.14c0,1.721.021,3.442-.01,5.163a6.589,6.589,0,0,1-4.441,6.028,7.483,7.483,0,0,1-2.218.264q-15.737.006-31.475,0a6.43,6.43,0,0,1-6.683-6.656q-.027-15.644-.008-31.289c0-.186,0-.373,0-.56-.012-1.291.143-1.142-1.181-1.147-1.953-.006-3.906,0-5.859,0-1.591,0-2.372-.719-2.377-2.291C.014,16.3-.048,14.351.079,12.4A5.915,5.915,0,0,1,5.254,7.022c.642-.064,1.283-.088,1.927-.088q12.341,0,24.681.012a1.144,1.144,0,0,0,1.243-.726,3.087,3.087,0,0,1,2.839-1.808c.9-.037,1.124-.268,1.167-1.157A3.176,3.176,0,0,1,39.146.307,3.255,3.255,0,0,1,42.7.834c.819.668.959.688,1.739.038A3.282,3.282,0,0,1,47.988.278a3.354,3.354,0,0,1,2.135,3.033c.089.931.229,1.062,1.131,1.1a3.182,3.182,0,0,1,2.93,1.975,3.2,3.2,0,0,1-.479,3.553c-.078.1-.166.186-.251.277a.845.845,0,0,0,0,1.314,3.222,3.222,0,0,1,.8,3.655,3.313,3.313,0,0,1-3,2.174c-.083.008-.165.018-.247.028-.625.078-.67.17-.36.74a5.3,5.3,0,0,0,2.011,1.991c.855.512,1.725,1,2.573,1.52a1.349,1.349,0,0,1,.777,1.544c-.124.565-.565.89-1.345.992-.062.008-.123.02-.185.028-.771.1-.784.109-.407.808.368.681.714,1.349.064,2.051-.49.53-1.095.554-2.117.02a24.255,24.255,0,0,1-5.434-3.25C46,23.3,45.5,22.7,44.914,22.094m-2.661.025c-.148.075-.2.084-.217.113-1.794,2.592-4.625,3.694-7.282,5.043a2.047,2.047,0,0,1-.535.161,1.248,1.248,0,0,1-1.417-.752,1.626,1.626,0,0,1,.223-1.476c.482-.921.477-.923-.542-1.042a1.3,1.3,0,0,1-1.311-1.024,1.373,1.373,0,0,1,.765-1.492c.992-.606,2-1.189,2.988-1.8A4.579,4.579,0,0,0,36.5,18.2c.369-.638.32-.751-.429-.82a3.383,3.383,0,0,1-3.193-2.361,3.245,3.245,0,0,1,.805-3.443c.3-.321.49-.689.257-1.061a1.586,1.586,0,0,0-1.449-.951c-6.855.036-13.711.021-20.567.021-.125,0-.249,0-.374,0-.325-.01-.429.12-.257.411a7.747,7.747,0,0,1,.8,4.1q0,19.283,0,38.566c0,.456-.007.915.036,1.367a4.028,4.028,0,0,0,1.4,2.756,2.756,2.756,0,0,0,3.556.192,4.042,4.042,0,0,0,1.7-3.37c.044-1.533.012-3.068.015-4.6,0-1.7.721-2.413,2.429-2.413H41.361c.89,0,.892,0,.893-.888q0-11.446,0-22.891ZM36.585,49.243H29.234q-3.458,0-6.915,0c-.851,0-.851,0-.854.876,0,.435-.007.871,0,1.306.04,2,.043,3.991-1.073,5.776-.152.244-.038.339.214.338.166,0,.332,0,.5,0H47.769a3.651,3.651,0,0,0,3.818-3.324,34.459,34.459,0,0,0,.1-4.159c.018-.811,0-.815-.838-.815H36.585M51.832,7.837c.015-.516-.285-.818-.884-.841a3.55,3.55,0,0,1-1.4-.258,3.384,3.384,0,0,1-2.084-3.129c-.028-.62-.335-.991-.807-.963-.317.019-.51.252-.73.44a3.379,3.379,0,0,1-4.684-.031c-.3-.272-.586-.552-1.038-.343a.988.988,0,0,0-.52.981,3.286,3.286,0,0,1-3.349,3.29.946.946,0,0,0-.953.558c-.164.394.059.666.305.937a3.354,3.354,0,0,1,.008,4.81c-.241.272-.487.528-.3.93a.925.925,0,0,0,.907.528,3.308,3.308,0,0,1,3.387,3.39.923.923,0,0,0,.537.9.863.863,0,0,0,.949-.285A3.376,3.376,0,0,1,46,18.722c.3.253.579.489,1,.313s.464-.527.481-.924a3.369,3.369,0,0,1,3.376-3.365c.4-.014.76-.071.925-.482a.9.9,0,0,0-.282-1,3.325,3.325,0,0,1,.012-4.8.874.874,0,0,0,.327-.622M6.031,17.883c.934,0,1.869-.009,2.8,0,.4.006.615-.1.61-.558-.019-1.513.027-3.027-.018-4.538a3.313,3.313,0,0,0-3.451-3.2,3.321,3.321,0,0,0-3.307,3.286c-.027,1.45.014,2.9-.017,4.352-.012.543.214.674.7.66.892-.025,1.786-.007,2.679-.008m44.432,5.44c.021-.253-.018-.446.057-.571.376-.622.066-.974-.451-1.267a.959.959,0,0,1-.143-.118c-.717-.62-.708-.606-1.526-.108-.315.191-.378.328-.087.588a10.282,10.282,0,0,0,2.151,1.475m-13.558-.1a9.272,9.272,0,0,0,1.9-1.312c.324-.285.306-.454-.075-.688-.782-.48-.768-.5-1.435.113-.153.14-.316.269-.475.4a1.676,1.676,0,0,0-.075,1.433c.039.035.108.035.164.052" transform="translate(0 0)" fill="#8fe3ff"/>
        <path id="Trazado_354" data-name="Trazado 354" d="M95.174,202.52h11.715a5.984,5.984,0,0,1,.685.016,1.356,1.356,0,0,1,1.225,1.276,1.309,1.309,0,0,1-1.1,1.311,3.754,3.754,0,0,1-.743.053q-11.777,0-23.554,0c-1.209,0-1.852-.484-1.838-1.369.013-.857.626-1.289,1.836-1.289H95.174" transform="translate(-68.004 -168.857)" fill="#8fe3ff"/>
        <path id="Trazado_355" data-name="Trazado 355" d="M95.161,227.248h11.9c1.089.005,1.748.514,1.739,1.342s-.661,1.316-1.769,1.317q-6.294,0-12.587,0-5.514,0-11.029,0a3.613,3.613,0,0,1-.863-.082,1.242,1.242,0,0,1-.99-1.264,1.263,1.263,0,0,1,1.016-1.249,3.656,3.656,0,0,1,.8-.059q5.888-.005,11.777,0" transform="translate(-68.007 -189.476)" fill="#8fe3ff"/>
        <path id="Trazado_356" data-name="Trazado 356" d="M89.51,177.8c2.1,0,4.2,0,6.293,0,1,0,1.537.472,1.537,1.311a1.335,1.335,0,0,1-1.486,1.334q-6.387.023-12.773,0a1.356,1.356,0,0,1-1.52-1.368c.015-.775.6-1.273,1.531-1.277,2.139-.009,4.278,0,6.418,0" transform="translate(-68.004 -148.246)" fill="#8fe3ff"/>
        <path id="Trazado_357" data-name="Trazado 357" d="M88.992,109.54q-2.989,0-5.977,0A1.446,1.446,0,0,1,81.751,109a1.281,1.281,0,0,1,.683-2,3.674,3.674,0,0,1,.985-.108q5.542-.011,11.083,0a4.626,4.626,0,0,1,.682.041,1.3,1.3,0,0,1,1.226,1.379,1.275,1.275,0,0,1-1.378,1.222c-1.453.015-2.906.005-4.358.006H88.992" transform="translate(-67.95 -89.124)" fill="#8fe3ff"/>
        <path id="Trazado_358" data-name="Trazado 358" d="M86.95,254.6c-1.308,0-2.616.01-3.924,0a1.329,1.329,0,1,1-.045-2.644c1.037-.03,2.076-.01,3.114-.01,1.578,0,3.156-.007,4.733,0a1.377,1.377,0,0,1,1.477.994,1.339,1.339,0,0,1-1.432,1.654c-1.308.02-2.616,0-3.924.005" transform="translate(-67.985 -210.064)" fill="#8fe3ff"/>
        <path id="Trazado_359" data-name="Trazado 359" d="M86.93,85.5c-1.266,0-2.532.006-3.8,0-.979-.006-1.567-.5-1.573-1.3A1.362,1.362,0,0,1,83.1,82.85q3.859-.023,7.719,0c.96.006,1.539.543,1.537,1.346s-.579,1.294-1.563,1.3c-1.286.008-2.573,0-3.86,0" transform="translate(-68.003 -69.07)" fill="#8fe3ff"/>
        <path id="Trazado_360" data-name="Trazado 360" d="M233.741,43.054a5.561,5.561,0,1,1,5.744-5.517,5.673,5.673,0,0,1-5.744,5.517m.1-2.659a2.9,2.9,0,1,0-.036-5.8,2.9,2.9,0,1,0,.036,5.8" transform="translate(-190.213 -26.628)" fill="#8fe3ff"/>
      </g>
    </g>
  </g>
</svg>
