<svg id="Grupo_273" data-name="Grupo 273" xmlns="http://www.w3.org/2000/svg" xmlns:xlink="http://www.w3.org/1999/xlink" width="381" height="83" viewBox="0 0 381 83">
  <defs>
    <clipPath id="clip-path">
      <rect id="Rectángulo_176" data-name="Rectángulo 176" width="381" height="83" fill="none"/>
    </clipPath>
    <clipPath id="clip-path-2">
      <rect id="Rectángulo_177" data-name="Rectángulo 177" width="45.411" height="58" transform="translate(31.08 12.5)" fill="none"/>
    </clipPath>
  </defs>
  <g id="Grupo_270" data-name="Grupo 270">
    <g id="Grupo_269" data-name="Grupo 269" clip-path="url(#clip-path)">
      <path id="Trazado_469" data-name="Trazado 469" d="M20,0H361a20,20,0,0,1,20,20V63a20,20,0,0,1-20,20H20A20,20,0,0,1,0,63V20A20,20,0,0,1,20,0" fill="#00214a"/>
      <path id="Trazado_470" data-name="Trazado 470" d="M111.861,24.037a3.084,3.084,0,0,0-2.646,1.284,5.976,5.976,0,0,0-.938,3.579q0,4.776,3.584,4.776a11.344,11.344,0,0,0,3.643-.752v2.539a10.124,10.124,0,0,1-3.926.732,5.99,5.99,0,0,1-4.766-1.889,8,8,0,0,1-1.65-5.425,8.866,8.866,0,0,1,.81-3.9,5.868,5.868,0,0,1,2.329-2.568,6.89,6.89,0,0,1,3.56-.894,9.6,9.6,0,0,1,4.18,1.006l-.977,2.461a16.236,16.236,0,0,0-1.611-.664,4.83,4.83,0,0,0-1.592-.283" fill="#a6faff"/>
      <path id="Trazado_471" data-name="Trazado 471" d="M128.229,30.521a5.869,5.869,0,0,1-1.406,4.17,5.1,5.1,0,0,1-3.916,1.5,5.488,5.488,0,0,1-2.774-.688,4.58,4.58,0,0,1-1.846-1.978,6.656,6.656,0,0,1-.644-3.008,5.833,5.833,0,0,1,1.4-4.16,5.133,5.133,0,0,1,3.926-1.485,5.5,5.5,0,0,1,2.774.685,4.555,4.555,0,0,1,1.845,1.962,6.576,6.576,0,0,1,.645,3m-7.549,0a4.579,4.579,0,0,0,.532,2.451,1.9,1.9,0,0,0,1.734.83,1.871,1.871,0,0,0,1.713-.824,4.645,4.645,0,0,0,.523-2.457,4.511,4.511,0,0,0-.527-2.431,2.243,2.243,0,0,0-3.448-.006,4.518,4.518,0,0,0-.527,2.437" fill="#a6faff"/>
      <path id="Trazado_472" data-name="Trazado 472" d="M140.768,36h-2.979V29.623a3.067,3.067,0,0,0-.419-1.772,1.529,1.529,0,0,0-1.338-.591,2.01,2.01,0,0,0-1.807.835,5.175,5.175,0,0,0-.557,2.768V36H130.69V25.082h2.275l.4,1.4h.166a3.148,3.148,0,0,1,1.372-1.2,4.672,4.672,0,0,1,1.987-.4,3.822,3.822,0,0,1,2.891,1.03,4.137,4.137,0,0,1,.986,2.974Z" fill="#a6faff"/>
      <path id="Trazado_473" data-name="Trazado 473" d="M151.451,32.758a3.007,3.007,0,0,1-1.167,2.559,5.766,5.766,0,0,1-3.491.879,10.9,10.9,0,0,1-2.031-.162,7.677,7.677,0,0,1-1.573-.473V33.1a10.38,10.38,0,0,0,1.87.654,7.57,7.57,0,0,0,1.831.264q1.621,0,1.622-.938a.783.783,0,0,0-.215-.571,3.088,3.088,0,0,0-.742-.5q-.528-.279-1.407-.649a8.819,8.819,0,0,1-1.85-.977,2.765,2.765,0,0,1-.86-1.03,3.407,3.407,0,0,1-.268-1.431,2.593,2.593,0,0,1,1.128-2.251,5.5,5.5,0,0,1,3.2-.8,9.065,9.065,0,0,1,3.838.86l-.9,2.148a16.35,16.35,0,0,0-1.533-.576,4.8,4.8,0,0,0-1.455-.225q-1.319,0-1.318.713a.836.836,0,0,0,.425.693,11.443,11.443,0,0,0,1.86.87,8.615,8.615,0,0,1,1.875.966,2.866,2.866,0,0,1,.879,1.036,3.175,3.175,0,0,1,.283,1.4" fill="#a6faff"/>
      <path id="Trazado_474" data-name="Trazado 474" d="M158.375,33.822a6.451,6.451,0,0,0,1.875-.342V35.7a6.686,6.686,0,0,1-2.734.5,3.348,3.348,0,0,1-2.6-.9,3.937,3.937,0,0,1-.815-2.71V27.318h-1.426v-1.26l1.641-1,.859-2.3h1.9v2.324h3.057v2.236h-3.057v5.264a1.161,1.161,0,0,0,.357.937,1.4,1.4,0,0,0,.942.3" fill="#a6faff"/>
      <path id="Trazado_475" data-name="Trazado 475" d="M169.391,36l-.576-1.485h-.078a4.4,4.4,0,0,1-1.548,1.314,5,5,0,0,1-2.075.366,3.355,3.355,0,0,1-2.476-.9,3.449,3.449,0,0,1-.9-2.558,2.882,2.882,0,0,1,1.215-2.564,7.062,7.062,0,0,1,3.667-.913l1.895-.058v-.479a1.485,1.485,0,0,0-1.7-1.66,7.744,7.744,0,0,0-3.076.791l-.987-2.012a8.885,8.885,0,0,1,4.18-.986,5.205,5.205,0,0,1,3.369.957,3.537,3.537,0,0,1,1.172,2.91V36Zm-.879-5.059-1.152.039a3.7,3.7,0,0,0-1.934.469,1.471,1.471,0,0,0-.635,1.308q0,1.26,1.446,1.26a2.286,2.286,0,0,0,1.655-.6,2.093,2.093,0,0,0,.62-1.582Z" fill="#a6faff"/>
      <path id="Trazado_476" data-name="Trazado 476" d="M184.615,36h-2.979V29.623a3.067,3.067,0,0,0-.419-1.772,1.529,1.529,0,0,0-1.338-.591,2.01,2.01,0,0,0-1.807.835,5.175,5.175,0,0,0-.557,2.768V36h-2.978V25.082h2.275l.4,1.4h.166a3.148,3.148,0,0,1,1.372-1.2,4.672,4.672,0,0,1,1.987-.4,3.822,3.822,0,0,1,2.891,1.03,4.137,4.137,0,0,1,.986,2.974Z" fill="#a6faff"/>
      <path id="Trazado_477" data-name="Trazado 477" d="M192.115,36.195q-5.1,0-5.1-5.6a5.972,5.972,0,0,1,1.387-4.253,5.205,5.205,0,0,1,3.975-1.469,7.571,7.571,0,0,1,3.4.742l-.879,2.305c-.469-.189-.9-.344-1.308-.464a4.238,4.238,0,0,0-1.211-.181q-2.325,0-2.325,3.3,0,3.2,2.325,3.2a5.265,5.265,0,0,0,1.591-.23,5.746,5.746,0,0,0,1.465-.717v2.548a4.794,4.794,0,0,1-1.46.635,8.217,8.217,0,0,1-1.86.176" fill="#a6faff"/>
      <path id="Trazado_478" data-name="Trazado 478" d="M197.838,22.26q0-1.455,1.621-1.455t1.621,1.455a1.419,1.419,0,0,1-.4,1.079,1.705,1.705,0,0,1-1.216.386q-1.62,0-1.621-1.465m3.1,13.74h-2.979V25.082h2.979Z" fill="#a6faff"/>
      <path id="Trazado_479" data-name="Trazado 479" d="M211,36l-.576-1.485h-.078a4.406,4.406,0,0,1-1.548,1.314,5,5,0,0,1-2.075.366,3.357,3.357,0,0,1-2.476-.9,3.445,3.445,0,0,1-.9-2.558,2.882,2.882,0,0,1,1.215-2.564,7.061,7.061,0,0,1,3.667-.913l1.9-.058v-.479a1.485,1.485,0,0,0-1.7-1.66,7.74,7.74,0,0,0-3.076.791l-.987-2.012a8.885,8.885,0,0,1,4.18-.986,5.205,5.205,0,0,1,3.369.957,3.537,3.537,0,0,1,1.172,2.91V36Zm-.879-5.059-1.152.039a3.7,3.7,0,0,0-1.934.469,1.469,1.469,0,0,0-.635,1.308q0,1.26,1.446,1.26a2.286,2.286,0,0,0,1.655-.6,2.093,2.093,0,0,0,.62-1.582Z" fill="#a6faff"/>
      <path id="Trazado_480" data-name="Trazado 480" d="M227.379,27.318H224.8V36h-2.979V27.318h-1.64V25.882l1.64-.8v-.8a3.584,3.584,0,0,1,.918-2.725,4.207,4.207,0,0,1,2.94-.859,7.648,7.648,0,0,1,2.744.459l-.762,2.187A5.575,5.575,0,0,0,226,23.06a1.075,1.075,0,0,0-.918.376,1.554,1.554,0,0,0-.283.962v.684h2.578Z" fill="#a6faff"/>
      <path id="Trazado_481" data-name="Trazado 481" d="M239.01,30.521a5.869,5.869,0,0,1-1.406,4.17,5.1,5.1,0,0,1-3.916,1.5,5.488,5.488,0,0,1-2.774-.688,4.58,4.58,0,0,1-1.846-1.978,6.656,6.656,0,0,1-.644-3.008,5.833,5.833,0,0,1,1.4-4.16,5.135,5.135,0,0,1,3.926-1.485,5.5,5.5,0,0,1,2.774.685,4.555,4.555,0,0,1,1.845,1.962,6.576,6.576,0,0,1,.645,3m-7.549,0a4.588,4.588,0,0,0,.532,2.451,1.9,1.9,0,0,0,1.734.83,1.87,1.87,0,0,0,1.713-.824,4.645,4.645,0,0,0,.523-2.457,4.511,4.511,0,0,0-.527-2.431,2.243,2.243,0,0,0-3.448-.006,4.518,4.518,0,0,0-.527,2.437" fill="#a6faff"/>
      <path id="Trazado_482" data-name="Trazado 482" d="M247.564,24.877a4.769,4.769,0,0,1,1.006.088l-.224,2.793a3.371,3.371,0,0,0-.88-.1,3.154,3.154,0,0,0-2.221.733,2.644,2.644,0,0,0-.8,2.05V36h-2.978V25.082h2.256l.44,1.836h.146a4.094,4.094,0,0,1,1.371-1.479,3.379,3.379,0,0,1,1.88-.562" fill="#a6faff"/>
      <path id="Trazado_483" data-name="Trazado 483" d="M260.328,36h-2.979V29.623a3.206,3.206,0,0,0-.395-1.772,1.392,1.392,0,0,0-1.245-.591,1.8,1.8,0,0,0-1.66.84,5.494,5.494,0,0,0-.518,2.763V36h-2.978V25.082h2.275l.4,1.4h.166a3.031,3.031,0,0,1,1.27-1.177,4.12,4.12,0,0,1,1.9-.425,3.432,3.432,0,0,1,3.321,1.6h.263a2.953,2.953,0,0,1,1.294-1.182,4.311,4.311,0,0,1,1.929-.42,3.8,3.8,0,0,1,2.807.952,4.181,4.181,0,0,1,.953,3.052V36h-2.989V29.623a3.205,3.205,0,0,0-.395-1.772,1.392,1.392,0,0,0-1.245-.591,1.86,1.86,0,0,0-1.636.781,4.436,4.436,0,0,0-.542,2.48Z" fill="#a6faff"/>
      <path id="Trazado_484" data-name="Trazado 484" d="M277.125,36l-.576-1.485h-.078a4.406,4.406,0,0,1-1.548,1.314,5,5,0,0,1-2.075.366,3.357,3.357,0,0,1-2.476-.9,3.445,3.445,0,0,1-.9-2.558,2.882,2.882,0,0,1,1.215-2.564,7.062,7.062,0,0,1,3.667-.913l1.895-.058v-.479a1.485,1.485,0,0,0-1.7-1.66,7.74,7.74,0,0,0-3.076.791l-.987-2.012a8.885,8.885,0,0,1,4.18-.986,5.205,5.205,0,0,1,3.369.957,3.537,3.537,0,0,1,1.172,2.91V36Zm-.879-5.059-1.152.039a3.7,3.7,0,0,0-1.934.469,1.469,1.469,0,0,0-.635,1.308q0,1.26,1.446,1.26a2.286,2.286,0,0,0,1.655-.6,2.093,2.093,0,0,0,.62-1.582Z" fill="#a6faff"/>
      <path id="Trazado_485" data-name="Trazado 485" d="M286.7,36.195q-5.1,0-5.1-5.6a5.972,5.972,0,0,1,1.387-4.253,5.205,5.205,0,0,1,3.975-1.469,7.571,7.571,0,0,1,3.4.742l-.879,2.305c-.469-.189-.9-.344-1.308-.464a4.238,4.238,0,0,0-1.211-.181q-2.323,0-2.325,3.3,0,3.2,2.325,3.2a5.265,5.265,0,0,0,1.591-.23,5.746,5.746,0,0,0,1.465-.717v2.548a4.794,4.794,0,0,1-1.46.635,8.217,8.217,0,0,1-1.86.176" fill="#a6faff"/>
      <path id="Trazado_486" data-name="Trazado 486" d="M292.428,22.26q0-1.455,1.621-1.455t1.621,1.455a1.419,1.419,0,0,1-.4,1.079,1.705,1.705,0,0,1-1.216.386q-1.62,0-1.621-1.465m3.1,13.74h-2.979V25.082h2.979Z" fill="#a6faff"/>
      <path id="Trazado_487" data-name="Trazado 487" d="M308.58,30.522a5.871,5.871,0,0,1-1.406,4.17,5.1,5.1,0,0,1-3.916,1.5,5.478,5.478,0,0,1-2.774-.688,4.58,4.58,0,0,1-1.846-1.978,6.652,6.652,0,0,1-.644-3.007,5.835,5.835,0,0,1,1.4-4.161,5.134,5.134,0,0,1,3.926-1.484,5.507,5.507,0,0,1,2.774.684,4.563,4.563,0,0,1,1.845,1.963,6.576,6.576,0,0,1,.645,3m-7.549,0a4.591,4.591,0,0,0,.532,2.451,1.9,1.9,0,0,0,1.734.83,1.873,1.873,0,0,0,1.713-.825,4.641,4.641,0,0,0,.523-2.456,4.515,4.515,0,0,0-.527-2.432,2.242,2.242,0,0,0-3.448-.005,4.513,4.513,0,0,0-.527,2.437m.625-6.641v-.264a27.537,27.537,0,0,0,2.295-2.939h3.34v.2q-.507.509-1.734,1.509t-1.919,1.489Z" fill="#a6faff"/>
      <path id="Trazado_488" data-name="Trazado 488" d="M321.119,36H318.14V29.623a3.067,3.067,0,0,0-.419-1.772,1.529,1.529,0,0,0-1.338-.591,2.01,2.01,0,0,0-1.807.835,5.175,5.175,0,0,0-.557,2.768V36h-2.978V25.082h2.275l.4,1.4h.166a3.148,3.148,0,0,1,1.372-1.2,4.675,4.675,0,0,1,1.987-.4,3.824,3.824,0,0,1,2.891,1.03,4.133,4.133,0,0,1,.986,2.974Z" fill="#a6faff"/>
      <path id="Trazado_489" data-name="Trazado 489" d="M108.16,63,104,52.082h3.115l2.109,6.221a11.09,11.09,0,0,1,.44,2.236h.058a9.775,9.775,0,0,1,.44-2.236l2.1-6.221h3.115L111.217,63Z" fill="#a6faff"/>
      <path id="Trazado_490" data-name="Trazado 490" d="M116.813,49.26q0-1.455,1.621-1.455t1.621,1.455a1.42,1.42,0,0,1-.406,1.079,1.7,1.7,0,0,1-1.215.386q-1.622,0-1.621-1.465m3.1,13.74h-2.979V52.082h2.979Z" fill="#a6faff"/>
      <path id="Trazado_491" data-name="Trazado 491" d="M129.137,51.877a4.775,4.775,0,0,1,1.006.088l-.225,2.793a3.363,3.363,0,0,0-.879-.1,3.154,3.154,0,0,0-2.221.733,2.644,2.644,0,0,0-.8,2.05V63h-2.979V52.082H125.3l.44,1.836h.146a4.1,4.1,0,0,1,1.372-1.479,3.379,3.379,0,0,1,1.88-.562" fill="#a6faff"/>
      <path id="Trazado_492" data-name="Trazado 492" d="M136.725,60.822a6.451,6.451,0,0,0,1.875-.342V62.7a6.686,6.686,0,0,1-2.734.5,3.348,3.348,0,0,1-2.6-.9,3.937,3.937,0,0,1-.815-2.71V54.318h-1.426v-1.26l1.641-1,.859-2.3h1.9v2.324h3.057v2.236h-3.057v5.264a1.161,1.161,0,0,0,.357.937,1.4,1.4,0,0,0,.942.3" fill="#a6faff"/>
      <path id="Trazado_493" data-name="Trazado 493" d="M148.541,63l-.4-1.4h-.157a3.134,3.134,0,0,1-1.357,1.176,4.629,4.629,0,0,1-2,.415,3.808,3.808,0,0,1-2.9-1.03,4.145,4.145,0,0,1-.977-2.964V52.082h2.979v6.377a3.067,3.067,0,0,0,.419,1.772,1.529,1.529,0,0,0,1.338.591,2.01,2.01,0,0,0,1.807-.835,5.175,5.175,0,0,0,.557-2.768V52.082h2.978V63Z" fill="#a6faff"/>
      <path id="Trazado_494" data-name="Trazado 494" d="M160.885,63l-.576-1.485h-.078a4.4,4.4,0,0,1-1.548,1.314,5,5,0,0,1-2.075.366,3.355,3.355,0,0,1-2.476-.9,3.449,3.449,0,0,1-.9-2.558,2.882,2.882,0,0,1,1.215-2.564,7.062,7.062,0,0,1,3.667-.913l1.9-.058v-.479a1.485,1.485,0,0,0-1.7-1.66,7.744,7.744,0,0,0-3.076.791l-.987-2.012a8.885,8.885,0,0,1,4.18-.986,5.205,5.205,0,0,1,3.369.957,3.537,3.537,0,0,1,1.172,2.91V63Zm-.879-5.059-1.152.039a3.7,3.7,0,0,0-1.934.469,1.471,1.471,0,0,0-.635,1.308q0,1.26,1.446,1.26a2.286,2.286,0,0,0,1.655-.6,2.093,2.093,0,0,0,.62-1.582Z" fill="#a6faff"/>
      <rect id="Rectángulo_175" data-name="Rectángulo 175" width="2.979" height="15.195" transform="translate(166.031 47.805)" fill="#a6faff"/>
    </g>
  </g>
  <g id="Grupo_272" data-name="Grupo 272">
    <g id="Grupo_271" data-name="Grupo 271" clip-path="url(#clip-path-2)">
      <path id="Trazado_495" data-name="Trazado 495" d="M49.643,12.555a4.771,4.771,0,0,1,2.337.484,4.14,4.14,0,0,0,3.634,0,4.513,4.513,0,0,1,5.683,1.1A5.346,5.346,0,0,0,65.261,16.1,4.526,4.526,0,0,1,69.5,19.467c.1.278.182.561.257.846a3.6,3.6,0,0,0,1.839,2.339c.1.056.2.118.306.178a4.889,4.889,0,0,1,2.642,5.686,4.142,4.142,0,0,0,.72,3.4,7.1,7.1,0,0,1,.591.95,4.6,4.6,0,0,1-.3,5.126,5.479,5.479,0,0,0-.968,4.382,4.681,4.681,0,0,1-2.6,5.141,4.041,4.041,0,0,0-2.123,2.255,1.209,1.209,0,0,0,.087,1.062q2.947,5.073,5.868,10.16a3.647,3.647,0,0,1,.673,1.8,2.59,2.59,0,0,1-2.5,2.674,2.563,2.563,0,0,1-.525-.036c-1.262-.191-2.526-.363-3.783-.581a.493.493,0,0,0-.63.3.484.484,0,0,0-.022.083c-.414,1.1-.869,2.192-1.274,3.3a2.622,2.622,0,0,1-4.923.425c-2.013-3.513-4.055-7.009-6.061-10.525A2.645,2.645,0,0,0,55.4,57.248a4.637,4.637,0,0,0-3.865.268,1.114,1.114,0,0,0-.49.567Q48.032,63.29,45.028,68.5a4.509,4.509,0,0,1-1.173,1.531,2.566,2.566,0,0,1-3.87-1.18c-.484-1.139-.92-2.3-1.347-3.46-.157-.427-.332-.624-.843-.528-1.176.221-2.367.36-3.549.55a2.547,2.547,0,0,1-2.65-1.026,2.454,2.454,0,0,1-.129-2.83c1.966-3.427,3.89-6.878,5.944-10.251.708-1.162.231-2.01-.463-2.838a4.206,4.206,0,0,0-1.187-.866,4.886,4.886,0,0,1-2.713-5.7,4.465,4.465,0,0,0-.76-3.512,4.9,4.9,0,0,1-.014-6.374,4.507,4.507,0,0,0,.769-3.564,4.783,4.783,0,0,1,2.61-5.581,4.565,4.565,0,0,0,2.315-2.953,4.777,4.777,0,0,1,4.89-3.9,3.913,3.913,0,0,0,3.015-1.467,6.213,6.213,0,0,1,1.545-1.355,3.354,3.354,0,0,1,2.225-.639M71.97,27.5a2.05,2.05,0,0,0-1.278-2.3,6.762,6.762,0,0,1-3.619-4.622,2.313,2.313,0,0,0-2.418-1.918,6.424,6.424,0,0,1-5.01-2.455,2.224,2.224,0,0,0-3.034-.719c-.11.043-.221.082-.33.128a6.254,6.254,0,0,1-4.982.007c-1.884-.751-2.3-.615-3.677.935A5.438,5.438,0,0,1,43.58,18.6,2.98,2.98,0,0,0,40.3,21.2a5.792,5.792,0,0,1-2.9,3.7c-1.841,1.093-2.009,1.5-1.68,3.6a5.489,5.489,0,0,1-.9,4.388,3.361,3.361,0,0,0,.028,4.674,5.435,5.435,0,0,1,.889,4.222c-.325,2.312-.22,2.6,1.755,3.782a6.037,6.037,0,0,1,2.784,3.507c.092.3.185.6.29.9a2.2,2.2,0,0,0,2.352,1.747,6.468,6.468,0,0,1,4.778,2.2c1.412,1.576,1.7,1.619,3.687.827a6.208,6.208,0,0,1,4.76-.02c2.065.812,2.3.778,3.783-.853a5.874,5.874,0,0,1,4.329-2.1A2.792,2.792,0,0,0,67.245,49.3a5.939,5.939,0,0,1,3-3.831c1.878-1.081,1.867-1.421,1.619-3.516a6.059,6.059,0,0,1,1-4.6,3.108,3.108,0,0,0,.025-4.269,5.159,5.159,0,0,1-1.086-3.652c.048-.606.1-1.212.163-1.932M42.352,67.64c.088-.041.114-.045.122-.058l5.589-9.627c.147-.252.079-.391-.165-.506a6.929,6.929,0,0,1-2.218-1.818,3.661,3.661,0,0,0-2.812-1.256,5.678,5.678,0,0,1-3.005-.911c-.385-.251-.566-.241-.807.184-1.65,2.9-3.329,5.787-4.993,8.681-.07.121-.232.229-.121.431.773-.112,1.547-.222,2.321-.336s1.552-.232,2.327-.351c1.2-.185,1.584.026,2.029,1.152.576,1.458,1.145,2.919,1.731,4.415m31.383-4.87a2.387,2.387,0,0,0-.1-.27c-1.716-2.977-3.439-5.95-5.145-8.932-.207-.361-.381-.339-.688-.135a5.582,5.582,0,0,1-2.995.941A3.806,3.806,0,0,0,61.842,55.7a6.136,6.136,0,0,1-1.977,1.65c-.419.2-.474.382-.233.792,1.638,2.8,3.25,5.605,4.871,8.41.211.364.428.724.7,1.185.632-1.613,1.212-3.11,1.8-4.6A1.449,1.449,0,0,1,68.705,62a1.43,1.43,0,0,1,.213.059c1.584.246,3.171.473,4.814.716" fill="#8fe3ff"/>
      <path id="Trazado_496" data-name="Trazado 496" d="M38.657,35.2a15.144,15.144,0,1,1,15.128,15.16h-.056A15.058,15.058,0,0,1,38.657,35.313V35.2m2.652-.055a12.429,12.429,0,1,0,0-.034v.029" fill="#8fe3ff"/>
      <path id="Trazado_497" data-name="Trazado 497" d="M50.033,33.906a1.4,1.4,0,0,1,1.037.488c.707.71,1.431,1.4,2.121,2.132.307.323.468.278.7-.077,1.208-1.84,2.438-3.665,3.655-5.5a1.575,1.575,0,0,1,.978-.794,1.308,1.308,0,0,1,1.457,1.887,4.286,4.286,0,0,1-.246.4q-2.321,3.484-4.644,6.966c-.725,1.085-1.553,1.176-2.467.268Q50.93,37.995,49.247,36.3a1.346,1.346,0,0,1-.415-1.6,1.269,1.269,0,0,1,1.2-.8" fill="#8fe3ff"/>
    </g>
  </g>
</svg>
