<svg xmlns="http://www.w3.org/2000/svg" xmlns:xlink="http://www.w3.org/1999/xlink" width="381" height="83" viewBox="0 0 381 83">
  <defs>
    <clipPath id="clip-path">
      <rect id="Rectángulo_146" data-name="Rectángulo 146" width="45.411" height="58" fill="#8fe3ff"/>
    </clipPath>
  </defs>
  <g id="Grupo_255" data-name="Grupo 255" transform="translate(-326 -3629)">
    <rect id="Rectángulo_144" data-name="Rectángulo 144" width="381" height="83" rx="20" transform="translate(326 3629)" fill="#00214a"/>
    <text id="Constancia_formación_virtual" data-name="Constancia formación
virtual" transform="translate(430 3665)" fill="#a6faff" font-size="20" font-family="OpenSans-Bold, Open Sans" font-weight="700"><tspan x="0" y="0">Constancia formación</tspan><tspan x="0" y="27">virtual</tspan></text>
    <g id="Grupo_229" data-name="Grupo 229" transform="translate(357.08 3641.5)">
      <g id="Grupo_228" data-name="Grupo 228" clip-path="url(#clip-path)">
        <path id="Trazado_361" data-name="Trazado 361" d="M18.563.055A4.776,4.776,0,0,1,20.9.539a4.143,4.143,0,0,0,3.634,0,4.513,4.513,0,0,1,5.683,1.095A5.345,5.345,0,0,0,34.181,3.6a4.527,4.527,0,0,1,4.236,3.367c.1.278.182.561.257.846a3.6,3.6,0,0,0,1.839,2.339c.1.056.2.118.306.178a4.888,4.888,0,0,1,2.642,5.686,4.143,4.143,0,0,0,.72,3.4,7.092,7.092,0,0,1,.591.95,4.6,4.6,0,0,1-.3,5.126,5.479,5.479,0,0,0-.968,4.382A4.68,4.68,0,0,1,40.9,35.015a4.043,4.043,0,0,0-2.123,2.255,1.211,1.211,0,0,0,.087,1.062q2.947,5.073,5.868,10.16a3.648,3.648,0,0,1,.673,1.8,2.591,2.591,0,0,1-3.03,2.638c-1.262-.191-2.526-.363-3.783-.581a.493.493,0,0,0-.652.381c-.414,1.1-.869,2.192-1.274,3.3a2.622,2.622,0,0,1-4.923.425c-2.013-3.513-4.055-7.009-6.061-10.525a2.64,2.64,0,0,0-1.364-1.182,4.635,4.635,0,0,0-3.865.268,1.118,1.118,0,0,0-.49.567q-3.01,5.207-6.015,10.415a4.5,4.5,0,0,1-1.173,1.531,2.565,2.565,0,0,1-3.87-1.18c-.484-1.139-.92-2.3-1.347-3.46-.157-.427-.332-.624-.843-.528-1.176.221-2.367.36-3.549.55A2.548,2.548,0,0,1,.516,51.885a2.454,2.454,0,0,1-.129-2.83c1.966-3.427,3.89-6.878,5.944-10.251.708-1.162.231-2.01-.463-2.838A4.192,4.192,0,0,0,4.681,35.1a4.887,4.887,0,0,1-2.713-5.7,4.464,4.464,0,0,0-.76-3.512,4.9,4.9,0,0,1-.014-6.374,4.507,4.507,0,0,0,.769-3.564,4.784,4.784,0,0,1,2.61-5.581A4.565,4.565,0,0,0,6.888,7.416a4.778,4.778,0,0,1,4.89-3.9,3.912,3.912,0,0,0,3.015-1.467A6.219,6.219,0,0,1,16.338.694,3.357,3.357,0,0,1,18.563.055M40.89,15a2.05,2.05,0,0,0-1.278-2.3,6.761,6.761,0,0,1-3.619-4.622A2.313,2.313,0,0,0,33.575,6.16a6.424,6.424,0,0,1-5.01-2.455,2.224,2.224,0,0,0-3.034-.719c-.11.043-.221.082-.33.128a6.255,6.255,0,0,1-4.982.007c-1.884-.751-2.3-.615-3.677.935A5.438,5.438,0,0,1,12.5,6.1,2.979,2.979,0,0,0,9.224,8.7a5.791,5.791,0,0,1-2.9,3.7c-1.841,1.093-2.009,1.5-1.68,3.6a5.488,5.488,0,0,1-.9,4.388,3.361,3.361,0,0,0,.028,4.674,5.437,5.437,0,0,1,.889,4.222c-.325,2.312-.22,2.6,1.755,3.782A6.039,6.039,0,0,1,9.2,36.573c.092.3.185.6.29.9a2.2,2.2,0,0,0,2.352,1.747,6.469,6.469,0,0,1,4.778,2.2c1.412,1.576,1.7,1.619,3.687.827a6.207,6.207,0,0,1,4.76-.02c2.065.812,2.3.778,3.783-.853a5.873,5.873,0,0,1,4.329-2.1A2.792,2.792,0,0,0,36.165,36.8a5.94,5.94,0,0,1,3.005-3.831c1.878-1.081,1.867-1.421,1.619-3.516a6.06,6.06,0,0,1,1-4.6,3.107,3.107,0,0,0,.025-4.269,5.161,5.161,0,0,1-1.086-3.652c.048-.606.1-1.212.163-1.932M11.272,55.14c.088-.041.114-.045.122-.058q2.795-4.813,5.589-9.627c.147-.252.079-.391-.165-.506A6.925,6.925,0,0,1,14.6,43.131a3.661,3.661,0,0,0-2.812-1.256,5.681,5.681,0,0,1-3.005-.911c-.385-.251-.566-.241-.807.184-1.65,2.9-3.329,5.787-4.993,8.681-.07.121-.232.229-.121.431.773-.112,1.547-.222,2.321-.336s1.552-.232,2.327-.351c1.2-.185,1.584.026,2.029,1.152.576,1.458,1.145,2.919,1.731,4.415m31.383-4.87A2.271,2.271,0,0,0,42.549,50c-1.716-2.977-3.439-5.95-5.145-8.932-.207-.361-.381-.339-.688-.135a5.579,5.579,0,0,1-2.995.941A3.807,3.807,0,0,0,30.762,43.2a6.138,6.138,0,0,1-1.977,1.65c-.419.2-.474.382-.233.792,1.638,2.8,3.25,5.605,4.871,8.41.211.364.428.724.7,1.185.632-1.613,1.212-3.11,1.8-4.6a1.449,1.449,0,0,1,1.915-1.082c1.584.246,3.171.473,4.814.716" transform="translate(0 0)" fill="#8fe3ff"/>
        <path id="Trazado_362" data-name="Trazado 362" d="M48.077,63A15.144,15.144,0,1,1,63.149,78.16,15.058,15.058,0,0,1,48.077,63m2.652-.055A12.492,12.492,0,1,0,63.3,50.5,12.491,12.491,0,0,0,50.729,62.94" transform="translate(-40.5 -40.303)" fill="#8fe3ff"/>
        <path id="Trazado_363" data-name="Trazado 363" d="M113.226,115.609a1.4,1.4,0,0,1,1.037.488c.707.71,1.431,1.4,2.121,2.132.307.323.468.278.7-.077,1.208-1.84,2.438-3.665,3.655-5.5a1.571,1.571,0,0,1,.978-.794,1.308,1.308,0,0,1,1.457,1.887c-.073.139-.159.271-.246.4q-2.321,3.484-4.644,6.966c-.725,1.085-1.553,1.176-2.467.268q-1.694-1.682-3.377-3.377a1.346,1.346,0,0,1-.415-1.595,1.268,1.268,0,0,1,1.2-.8" transform="translate(-94.273 -94.203)" fill="#8fe3ff"/>
      </g>
    </g>
  </g>
</svg>
