<svg id="Grupo_268" data-name="Grupo 268" xmlns="http://www.w3.org/2000/svg" xmlns:xlink="http://www.w3.org/1999/xlink" width="381" height="83" viewBox="0 0 381 83">
  <defs>
    <clipPath id="clip-path">
      <rect id="Rectángulo_173" data-name="Rectángulo 173" width="381" height="83" fill="none"/>
    </clipPath>
    <clipPath id="clip-path-2">
      <rect id="Rectángulo_174" data-name="Rectángulo 174" width="64.753" height="55.978" transform="translate(37 19.011)" fill="none"/>
    </clipPath>
  </defs>
  <g id="Grupo_265" data-name="Grupo 265">
    <g id="Grupo_264" data-name="Grupo 264" clip-path="url(#clip-path)">
      <path id="Trazado_429" data-name="Trazado 429" d="M20,0H361a20,20,0,0,1,20,20V63a20,20,0,0,1-20,20H20A20,20,0,0,1,0,63V20A20,20,0,0,1,20,0" fill="#00214a"/>
      <path id="Trazado_430" data-name="Trazado 430" d="M122.861,24.037a3.084,3.084,0,0,0-2.646,1.284,5.976,5.976,0,0,0-.938,3.579q0,4.776,3.584,4.776a11.344,11.344,0,0,0,3.643-.752v2.539a10.124,10.124,0,0,1-3.926.732,5.99,5.99,0,0,1-4.766-1.889,8,8,0,0,1-1.65-5.425,8.866,8.866,0,0,1,.81-3.9,5.868,5.868,0,0,1,2.329-2.568,6.89,6.89,0,0,1,3.56-.894,9.6,9.6,0,0,1,4.18,1.006l-.977,2.461a16.236,16.236,0,0,0-1.611-.664,4.83,4.83,0,0,0-1.592-.283" fill="#a6faff"/>
      <path id="Trazado_431" data-name="Trazado 431" d="M134.248,36.195a5.636,5.636,0,0,1-4.121-1.455,5.508,5.508,0,0,1-1.485-4.121,6.058,6.058,0,0,1,1.373-4.243,4.885,4.885,0,0,1,3.793-1.5,4.809,4.809,0,0,1,3.6,1.318,4.99,4.99,0,0,1,1.289,3.643v1.445H131.66a2.869,2.869,0,0,0,.752,1.983,2.647,2.647,0,0,0,1.973.712,8.175,8.175,0,0,0,1.865-.205,9.25,9.25,0,0,0,1.836-.654v2.305a7.024,7.024,0,0,1-1.67.581,10.525,10.525,0,0,1-2.168.19m-.42-9.2a1.887,1.887,0,0,0-1.484.6,2.784,2.784,0,0,0-.616,1.7h4.18a2.482,2.482,0,0,0-.576-1.7,1.95,1.95,0,0,0-1.5-.6" fill="#a6faff"/>
      <path id="Trazado_432" data-name="Trazado 432" d="M147.217,24.877a4.775,4.775,0,0,1,1.006.088L148,27.758a3.363,3.363,0,0,0-.879-.1,3.154,3.154,0,0,0-2.221.733,2.644,2.644,0,0,0-.8,2.05V36h-2.979V25.082h2.256l.44,1.836h.146a4.1,4.1,0,0,1,1.372-1.479,3.379,3.379,0,0,1,1.88-.562" fill="#a6faff"/>
      <path id="Trazado_433" data-name="Trazado 433" d="M154.8,33.822a6.451,6.451,0,0,0,1.875-.342V35.7a6.686,6.686,0,0,1-2.734.5,3.348,3.348,0,0,1-2.6-.9,3.937,3.937,0,0,1-.815-2.71V27.318H149.1v-1.26l1.641-1,.859-2.3h1.9v2.324h3.057v2.236h-3.057v5.264a1.161,1.161,0,0,0,.357.937,1.4,1.4,0,0,0,.942.3" fill="#a6faff"/>
      <path id="Trazado_434" data-name="Trazado 434" d="M158.76,22.26q0-1.455,1.621-1.455T162,22.26a1.419,1.419,0,0,1-.4,1.079,1.705,1.705,0,0,1-1.216.386q-1.621,0-1.621-1.465M161.865,36h-2.979V25.082h2.979Z" fill="#a6faff"/>
      <path id="Trazado_435" data-name="Trazado 435" d="M171.025,27.318h-2.578V36h-2.978V27.318h-1.641V25.883l1.641-.8v-.8a3.576,3.576,0,0,1,.918-2.724,4.2,4.2,0,0,1,2.939-.86,7.667,7.667,0,0,1,2.744.459l-.761,2.188a5.554,5.554,0,0,0-1.661-.283,1.075,1.075,0,0,0-.918.376,1.557,1.557,0,0,0-.283.961v.684h2.578Zm1.582-5.058q0-1.455,1.622-1.455t1.621,1.455a1.42,1.42,0,0,1-.406,1.079,1.7,1.7,0,0,1-1.215.386q-1.622,0-1.622-1.465M175.713,36h-2.979V25.082h2.979Z" fill="#a6faff"/>
      <path id="Trazado_436" data-name="Trazado 436" d="M183.262,36.195q-5.1,0-5.1-5.6a5.972,5.972,0,0,1,1.387-4.253,5.205,5.205,0,0,1,3.975-1.469,7.571,7.571,0,0,1,3.4.742l-.879,2.305q-.7-.283-1.308-.464a4.238,4.238,0,0,0-1.211-.181q-2.325,0-2.325,3.3,0,3.2,2.325,3.2a5.265,5.265,0,0,0,1.591-.23,5.746,5.746,0,0,0,1.465-.717v2.548a4.794,4.794,0,0,1-1.46.635,8.211,8.211,0,0,1-1.86.176" fill="#a6faff"/>
      <path id="Trazado_437" data-name="Trazado 437" d="M196.045,36l-.576-1.485h-.078a4.406,4.406,0,0,1-1.548,1.314,5,5,0,0,1-2.075.366,3.355,3.355,0,0,1-2.476-.9,3.449,3.449,0,0,1-.9-2.558,2.882,2.882,0,0,1,1.215-2.564,7.061,7.061,0,0,1,3.667-.913l1.9-.058v-.479a1.485,1.485,0,0,0-1.7-1.66,7.74,7.74,0,0,0-3.076.791l-.987-2.012a8.888,8.888,0,0,1,4.18-.986,5.205,5.205,0,0,1,3.369.957,3.537,3.537,0,0,1,1.172,2.91V36Zm-.879-5.059-1.152.039a3.7,3.7,0,0,0-1.934.469,1.469,1.469,0,0,0-.635,1.308q0,1.26,1.446,1.26a2.286,2.286,0,0,0,1.655-.6,2.093,2.093,0,0,0,.62-1.582Z" fill="#a6faff"/>
      <path id="Trazado_438" data-name="Trazado 438" d="M204.648,36.195a3.544,3.544,0,0,1-3.022-1.494,6.865,6.865,0,0,1-1.1-4.141,6.877,6.877,0,0,1,1.118-4.184,3.633,3.633,0,0,1,3.081-1.5,3.565,3.565,0,0,1,3.145,1.6h.1a12.141,12.141,0,0,1-.224-2.177V20.8h2.988V36h-2.285l-.576-1.416h-.127a3.41,3.41,0,0,1-3.1,1.611m1.045-2.373a2.021,2.021,0,0,0,1.675-.664,3.869,3.869,0,0,0,.581-2.256V30.58a4.469,4.469,0,0,0-.542-2.52,2.011,2.011,0,0,0-1.763-.761,1.749,1.749,0,0,0-1.548.844,4.508,4.508,0,0,0-.551,2.456,4.27,4.27,0,0,0,.556,2.417,1.821,1.821,0,0,0,1.592.806" fill="#a6faff"/>
      <path id="Trazado_439" data-name="Trazado 439" d="M223.77,30.521a5.869,5.869,0,0,1-1.406,4.17,5.1,5.1,0,0,1-3.916,1.5,5.488,5.488,0,0,1-2.774-.688,4.58,4.58,0,0,1-1.846-1.978,6.656,6.656,0,0,1-.644-3.008,5.833,5.833,0,0,1,1.4-4.16,5.135,5.135,0,0,1,3.926-1.485,5.5,5.5,0,0,1,2.774.685,4.555,4.555,0,0,1,1.845,1.962,6.576,6.576,0,0,1,.645,3m-7.549,0a4.588,4.588,0,0,0,.532,2.451,1.9,1.9,0,0,0,1.734.83,1.87,1.87,0,0,0,1.713-.824,4.645,4.645,0,0,0,.523-2.457,4.511,4.511,0,0,0-.527-2.431,2.243,2.243,0,0,0-3.448-.006,4.518,4.518,0,0,0-.527,2.437" fill="#a6faff"/>
      <path id="Trazado_440" data-name="Trazado 440" d="M234.883,36.195a3.544,3.544,0,0,1-3.022-1.494,6.865,6.865,0,0,1-1.1-4.141,6.877,6.877,0,0,1,1.118-4.184,3.633,3.633,0,0,1,3.081-1.5,3.565,3.565,0,0,1,3.145,1.6h.1a12.141,12.141,0,0,1-.224-2.177V20.8h2.988V36h-2.285l-.576-1.416h-.127a3.41,3.41,0,0,1-3.1,1.611m1.045-2.373a2.021,2.021,0,0,0,1.675-.664,3.869,3.869,0,0,0,.581-2.256V30.58a4.469,4.469,0,0,0-.542-2.52,2.011,2.011,0,0,0-1.763-.761,1.749,1.749,0,0,0-1.548.844,4.508,4.508,0,0,0-.551,2.456,4.27,4.27,0,0,0,.556,2.417,1.821,1.821,0,0,0,1.592.806" fill="#a6faff"/>
      <path id="Trazado_441" data-name="Trazado 441" d="M249.023,36.195A5.639,5.639,0,0,1,244.9,34.74a5.512,5.512,0,0,1-1.485-4.121,6.054,6.054,0,0,1,1.373-4.243,4.887,4.887,0,0,1,3.793-1.5,4.811,4.811,0,0,1,3.605,1.318,4.994,4.994,0,0,1,1.289,3.643v1.445h-7.041a2.869,2.869,0,0,0,.752,1.983,2.645,2.645,0,0,0,1.973.712,8.166,8.166,0,0,0,1.864-.205,9.25,9.25,0,0,0,1.836-.654v2.305a7.024,7.024,0,0,1-1.67.581,10.518,10.518,0,0,1-2.168.19M248.6,27a1.886,1.886,0,0,0-1.484.6,2.79,2.79,0,0,0-.617,1.7h4.181a2.487,2.487,0,0,0-.577-1.7,1.949,1.949,0,0,0-1.5-.6" fill="#a6faff"/>
      <rect id="Rectángulo_171" data-name="Rectángulo 171" width="2.979" height="15.195" transform="translate(255.898 20.805)" fill="#a6faff"/>
      <path id="Trazado_442" data-name="Trazado 442" d="M273.194,36.2a3.621,3.621,0,0,1-3.018-1.4h-.156q.156,1.366.156,1.582v4.424H267.2V25.082h2.422l.42,1.416h.136a3.447,3.447,0,0,1,3.1-1.621,3.541,3.541,0,0,1,3.027,1.494,6.913,6.913,0,0,1,1.094,4.151,8.194,8.194,0,0,1-.513,3.037,4.265,4.265,0,0,1-1.46,1.963,3.738,3.738,0,0,1-2.226.674m-.879-8.936a1.88,1.88,0,0,0-1.611.679,3.906,3.906,0,0,0-.528,2.241V30.5a4.6,4.6,0,0,0,.523,2.52,1.862,1.862,0,0,0,1.655.761q2,0,2-3.3a4.711,4.711,0,0,0-.492-2.417,1.684,1.684,0,0,0-1.548-.806" fill="#a6faff"/>
      <path id="Trazado_443" data-name="Trazado 443" d="M285.947,24.877a4.781,4.781,0,0,1,1.006.088l-.225,2.793a3.363,3.363,0,0,0-.879-.1,3.152,3.152,0,0,0-2.221.733,2.644,2.644,0,0,0-.8,2.05V36h-2.979V25.082h2.256l.44,1.836h.146a4.1,4.1,0,0,1,1.372-1.479,3.376,3.376,0,0,1,1.88-.562" fill="#a6faff"/>
      <path id="Trazado_444" data-name="Trazado 444" d="M298.858,30.521a5.869,5.869,0,0,1-1.406,4.17,5.1,5.1,0,0,1-3.916,1.5,5.488,5.488,0,0,1-2.774-.688,4.58,4.58,0,0,1-1.846-1.978,6.656,6.656,0,0,1-.644-3.008,5.833,5.833,0,0,1,1.4-4.16,5.135,5.135,0,0,1,3.926-1.485,5.5,5.5,0,0,1,2.774.685,4.555,4.555,0,0,1,1.845,1.962,6.576,6.576,0,0,1,.645,3m-7.549,0a4.588,4.588,0,0,0,.532,2.451,1.9,1.9,0,0,0,1.734.83,1.87,1.87,0,0,0,1.713-.824,4.645,4.645,0,0,0,.523-2.457,4.511,4.511,0,0,0-.527-2.431,2.243,2.243,0,0,0-3.448-.006,4.518,4.518,0,0,0-.527,2.437" fill="#a6faff"/>
      <path id="Trazado_445" data-name="Trazado 445" d="M299.756,25.082h3.262l2.06,6.143a8.5,8.5,0,0,1,.362,1.894h.058a8.344,8.344,0,0,1,.42-1.894l2.022-6.143h3.193L306.514,37.4a5.337,5.337,0,0,1-1.812,2.559,4.572,4.572,0,0,1-2.749.85,6.952,6.952,0,0,1-1.513-.166V38.275a5.058,5.058,0,0,0,1.171.127,2.115,2.115,0,0,0,1.382-.483,3.129,3.129,0,0,0,.923-1.46l.176-.537Z" fill="#a6faff"/>
      <path id="Trazado_446" data-name="Trazado 446" d="M317.637,36.195a5.636,5.636,0,0,1-4.121-1.455,5.508,5.508,0,0,1-1.485-4.121,6.054,6.054,0,0,1,1.373-4.243,4.885,4.885,0,0,1,3.793-1.5,4.809,4.809,0,0,1,3.6,1.318,4.989,4.989,0,0,1,1.289,3.643v1.445h-7.041a2.87,2.87,0,0,0,.752,1.983,2.648,2.648,0,0,0,1.973.712,8.169,8.169,0,0,0,1.865-.205,9.273,9.273,0,0,0,1.836-.654v2.305a7.04,7.04,0,0,1-1.67.581,10.525,10.525,0,0,1-2.168.19m-.42-9.2a1.886,1.886,0,0,0-1.484.6,2.784,2.784,0,0,0-.616,1.7h4.18a2.486,2.486,0,0,0-.576-1.7,1.95,1.95,0,0,0-1.5-.6" fill="#a6faff"/>
      <path id="Trazado_447" data-name="Trazado 447" d="M328.945,36.195q-5.1,0-5.1-5.6a5.972,5.972,0,0,1,1.387-4.253,5.205,5.205,0,0,1,3.975-1.469,7.571,7.571,0,0,1,3.4.742l-.879,2.305c-.469-.189-.9-.344-1.308-.464a4.238,4.238,0,0,0-1.211-.181q-2.324,0-2.325,3.3,0,3.2,2.325,3.2a5.265,5.265,0,0,0,1.591-.23,5.746,5.746,0,0,0,1.465-.717v2.548a4.794,4.794,0,0,1-1.46.635,8.217,8.217,0,0,1-1.86.176" fill="#a6faff"/>
      <path id="Trazado_448" data-name="Trazado 448" d="M339.395,33.822a6.462,6.462,0,0,0,1.875-.342V35.7a6.691,6.691,0,0,1-2.735.5,3.351,3.351,0,0,1-2.6-.9,3.932,3.932,0,0,1-.815-2.71V27.318h-1.426v-1.26l1.641-1,.859-2.3h1.9v2.324h3.057v2.236H338.1v5.264a1.162,1.162,0,0,0,.358.937,1.4,1.4,0,0,0,.942.3" fill="#a6faff"/>
      <path id="Trazado_449" data-name="Trazado 449" d="M353.4,30.521a5.869,5.869,0,0,1-1.406,4.17,5.1,5.1,0,0,1-3.916,1.5,5.488,5.488,0,0,1-2.774-.688,4.58,4.58,0,0,1-1.846-1.978,6.656,6.656,0,0,1-.644-3.008,5.833,5.833,0,0,1,1.4-4.16,5.135,5.135,0,0,1,3.926-1.485,5.5,5.5,0,0,1,2.774.685,4.555,4.555,0,0,1,1.845,1.962,6.576,6.576,0,0,1,.645,3m-7.549,0a4.588,4.588,0,0,0,.532,2.451,1.9,1.9,0,0,0,1.734.83,1.87,1.87,0,0,0,1.713-.824,4.645,4.645,0,0,0,.523-2.457,4.511,4.511,0,0,0-.527-2.431,2.243,2.243,0,0,0-3.448-.006,4.518,4.518,0,0,0-.527,2.437" fill="#a6faff"/>
      <path id="Trazado_450" data-name="Trazado 450" d="M123.5,63l-.576-1.485h-.078a4.4,4.4,0,0,1-1.548,1.314,5,5,0,0,1-2.075.366,3.355,3.355,0,0,1-2.476-.9,3.449,3.449,0,0,1-.9-2.558,2.882,2.882,0,0,1,1.215-2.564,7.062,7.062,0,0,1,3.667-.913l1.895-.058v-.479a1.485,1.485,0,0,0-1.7-1.66,7.744,7.744,0,0,0-3.076.791l-.987-2.012a8.885,8.885,0,0,1,4.18-.986,5.205,5.205,0,0,1,3.369.957,3.537,3.537,0,0,1,1.172,2.91V63Zm-.879-5.059-1.152.039a3.7,3.7,0,0,0-1.934.469,1.471,1.471,0,0,0-.635,1.308q0,1.26,1.446,1.26a2.286,2.286,0,0,0,1.655-.6,2.093,2.093,0,0,0,.62-1.582Z" fill="#a6faff"/>
      <path id="Trazado_451" data-name="Trazado 451" d="M131.24,63l-4.16-10.918H130.2L132.3,58.3a11.09,11.09,0,0,1,.44,2.236h.058a9.775,9.775,0,0,1,.44-2.236l2.1-6.221h3.115L134.3,63Z" fill="#a6faff"/>
      <path id="Trazado_452" data-name="Trazado 452" d="M146.953,63l-.576-1.485H146.3a4.4,4.4,0,0,1-1.548,1.314,5,5,0,0,1-2.075.366,3.355,3.355,0,0,1-2.476-.9,3.449,3.449,0,0,1-.9-2.558,2.882,2.882,0,0,1,1.215-2.564,7.062,7.062,0,0,1,3.667-.913l1.9-.058v-.479a1.485,1.485,0,0,0-1.7-1.66,7.745,7.745,0,0,0-3.076.791l-.987-2.012a8.885,8.885,0,0,1,4.18-.986,5.205,5.205,0,0,1,3.369.957,3.537,3.537,0,0,1,1.172,2.91V63Zm-.879-5.059-1.152.039a3.7,3.7,0,0,0-1.934.469,1.471,1.471,0,0,0-.635,1.308q0,1.26,1.446,1.26a2.286,2.286,0,0,0,1.655-.6,2.093,2.093,0,0,0,.62-1.582Z" fill="#a6faff"/>
      <rect id="Rectángulo_172" data-name="Rectángulo 172" width="2.979" height="15.195" transform="translate(152.099 47.805)" fill="#a6faff"/>
      <path id="Trazado_453" data-name="Trazado 453" d="M165.137,63l-.576-1.485h-.078a4.4,4.4,0,0,1-1.548,1.314,5,5,0,0,1-2.075.366,3.355,3.355,0,0,1-2.476-.9,3.449,3.449,0,0,1-.9-2.558,2.882,2.882,0,0,1,1.215-2.564,7.062,7.062,0,0,1,3.667-.913l1.895-.058v-.479a1.485,1.485,0,0,0-1.7-1.66,7.744,7.744,0,0,0-3.076.791l-.987-2.012a8.885,8.885,0,0,1,4.18-.986,5.205,5.205,0,0,1,3.369.957,3.537,3.537,0,0,1,1.172,2.91V63Zm-.879-5.059-1.152.039a3.7,3.7,0,0,0-1.934.469,1.471,1.471,0,0,0-.635,1.308q0,1.26,1.446,1.26a2.286,2.286,0,0,0,1.655-.6,2.093,2.093,0,0,0,.62-1.582Z" fill="#a6faff"/>
      <path id="Trazado_454" data-name="Trazado 454" d="M173.74,63.195a3.544,3.544,0,0,1-3.022-1.494,6.865,6.865,0,0,1-1.1-4.141,6.877,6.877,0,0,1,1.118-4.184,3.634,3.634,0,0,1,3.081-1.5,3.564,3.564,0,0,1,3.145,1.6h.1a12.142,12.142,0,0,1-.224-2.177V47.8h2.988V63h-2.285l-.576-1.416h-.127a3.409,3.409,0,0,1-3.1,1.611m1.045-2.373a2.021,2.021,0,0,0,1.675-.664,3.862,3.862,0,0,0,.581-2.256V57.58a4.469,4.469,0,0,0-.542-2.52,2.012,2.012,0,0,0-1.763-.761,1.748,1.748,0,0,0-1.548.844,4.517,4.517,0,0,0-.551,2.456,4.27,4.27,0,0,0,.556,2.417,1.82,1.82,0,0,0,1.592.806" fill="#a6faff"/>
      <path id="Trazado_455" data-name="Trazado 455" d="M192.861,57.521a5.868,5.868,0,0,1-1.4,4.17,5.1,5.1,0,0,1-3.916,1.5,5.483,5.483,0,0,1-2.774-.688,4.582,4.582,0,0,1-1.847-1.978,6.653,6.653,0,0,1-.644-3.008,5.835,5.835,0,0,1,1.4-4.16,5.135,5.135,0,0,1,3.927-1.485,5.515,5.515,0,0,1,2.774.684,4.565,4.565,0,0,1,1.845,1.964,6.582,6.582,0,0,1,.644,3m-7.548,0a4.591,4.591,0,0,0,.531,2.451,1.9,1.9,0,0,0,1.735.83,1.872,1.872,0,0,0,1.713-.825,4.642,4.642,0,0,0,.522-2.456,4.512,4.512,0,0,0-.526-2.431,2.244,2.244,0,0,0-3.449-.006,4.517,4.517,0,0,0-.526,2.437" fill="#a6faff"/>
      <path id="Trazado_456" data-name="Trazado 456" d="M206.8,63l-3.438-11.2h-.087q.185,3.417.185,4.56V63h-2.705V48.723h4.121l3.379,10.918h.059L211.9,48.723h4.121V63h-2.823V56.242c0-.319.005-.686.015-1.1s.054-1.524.132-3.321h-.088L209.57,63Z" fill="#a6faff"/>
      <path id="Trazado_457" data-name="Trazado 457" d="M219.248,49.26q0-1.455,1.621-1.455t1.621,1.455a1.419,1.419,0,0,1-.4,1.079,1.705,1.705,0,0,1-1.216.386q-1.62,0-1.621-1.465M222.354,63h-2.979V52.082h2.979Z" fill="#a6faff"/>
      <path id="Trazado_458" data-name="Trazado 458" d="M235.557,63h-2.979V56.623a3.067,3.067,0,0,0-.419-1.772,1.529,1.529,0,0,0-1.338-.591,2.01,2.01,0,0,0-1.807.835,5.175,5.175,0,0,0-.557,2.768V63h-2.978V52.082h2.275l.4,1.4h.166a3.148,3.148,0,0,1,1.372-1.2,4.675,4.675,0,0,1,1.987-.405,3.824,3.824,0,0,1,2.891,1.03,4.133,4.133,0,0,1,.986,2.974Z" fill="#a6faff"/>
      <path id="Trazado_459" data-name="Trazado 459" d="M243.564,63.195a5.639,5.639,0,0,1-4.121-1.455,5.512,5.512,0,0,1-1.485-4.121,6.054,6.054,0,0,1,1.373-4.243,4.887,4.887,0,0,1,3.793-1.5,4.811,4.811,0,0,1,3.605,1.318,4.994,4.994,0,0,1,1.289,3.643v1.445h-7.041a2.869,2.869,0,0,0,.752,1.983,2.645,2.645,0,0,0,1.973.712,8.166,8.166,0,0,0,1.864-.205,9.25,9.25,0,0,0,1.836-.654v2.305a7.039,7.039,0,0,1-1.67.581,10.518,10.518,0,0,1-2.168.19m-.419-9.2a1.886,1.886,0,0,0-1.484.6,2.79,2.79,0,0,0-.617,1.7h4.181a2.487,2.487,0,0,0-.577-1.7,1.949,1.949,0,0,0-1.5-.6" fill="#a6faff"/>
      <path id="Trazado_460" data-name="Trazado 460" d="M253.9,63.195a3.544,3.544,0,0,1-3.022-1.494,6.865,6.865,0,0,1-1.1-4.141,6.877,6.877,0,0,1,1.118-4.184,3.633,3.633,0,0,1,3.081-1.5,3.565,3.565,0,0,1,3.145,1.6h.1a12.142,12.142,0,0,1-.224-2.177V47.8h2.988V63H257.7l-.576-1.416h-.127a3.41,3.41,0,0,1-3.1,1.611m1.045-2.373a2.021,2.021,0,0,0,1.675-.664A3.869,3.869,0,0,0,257.2,57.9V57.58a4.469,4.469,0,0,0-.542-2.52,2.011,2.011,0,0,0-1.763-.761,1.749,1.749,0,0,0-1.548.844,4.508,4.508,0,0,0-.551,2.456,4.27,4.27,0,0,0,.556,2.417,1.821,1.821,0,0,0,1.592.806" fill="#a6faff"/>
      <path id="Trazado_461" data-name="Trazado 461" d="M270.83,63l-.4-1.4h-.157a3.134,3.134,0,0,1-1.357,1.176,4.633,4.633,0,0,1-2,.415,3.808,3.808,0,0,1-2.9-1.03,4.145,4.145,0,0,1-.977-2.964V52.082h2.979v6.377a3.067,3.067,0,0,0,.419,1.772,1.529,1.529,0,0,0,1.338.591,2.01,2.01,0,0,0,1.807-.835,5.175,5.175,0,0,0,.557-2.768V52.082h2.978V63Z" fill="#a6faff"/>
      <path id="Trazado_462" data-name="Trazado 462" d="M280.674,63.195q-5.1,0-5.1-5.6a5.972,5.972,0,0,1,1.387-4.253,5.205,5.205,0,0,1,3.975-1.469,7.571,7.571,0,0,1,3.4.742l-.879,2.305c-.469-.189-.9-.344-1.308-.464a4.238,4.238,0,0,0-1.211-.181q-2.323,0-2.325,3.3,0,3.2,2.325,3.2a5.265,5.265,0,0,0,1.591-.23,5.745,5.745,0,0,0,1.465-.717v2.548a4.794,4.794,0,0,1-1.46.635,8.217,8.217,0,0,1-1.86.176" fill="#a6faff"/>
    </g>
  </g>
  <g id="Grupo_267" data-name="Grupo 267">
    <g id="Grupo_266" data-name="Grupo 266" clip-path="url(#clip-path-2)">
      <path id="Trazado_463" data-name="Trazado 463" d="M37,33.35a3.354,3.354,0,0,1,.4-.312.988.988,0,0,1,1.538.83c.013.231,0,.463,0,.695V66.649c0,1.05,0,1.051,1.035,1.051q19.485,0,38.971-.007c.313,0,.766.182.911-.2a2.7,2.7,0,0,0,.016-1.432c-.033-.172-.214-.18-.364-.184-.21,0-.421,0-.632,0H42.432c-1.394,0-1.653-.256-1.653-1.653V24.5c0-1.315.328-1.643,1.643-1.643H96.236c1.357,0,1.668.314,1.668,1.682V49.293a3.642,3.642,0,0,1-.064.814,1.006,1.006,0,0,1-1.98-.114,6.172,6.172,0,0,1-.019-.757V25.8c0-.88,0-.883-.855-.883H43.7c-.848,0-.851,0-.851.823q0,18.665-.013,37.329c0,.619.14.832.8.831q17.75-.03,35.5,0c.656,0,.839-.2.805-.828-.048-.9-.024-1.81-.008-2.715.007-.4-.137-.546-.549-.564-1.832-.079-2.545-.812-2.483-2.656a2.487,2.487,0,0,0-.914-2.2,2.335,2.335,0,0,1,.033-3.894,2.285,2.285,0,0,0,.884-2.015c-.071-2.072.755-2.882,2.848-2.809a2.171,2.171,0,0,0,1.911-.83,2.38,2.38,0,0,1,4.026.012,1.923,1.923,0,0,0,1.853.81,3.746,3.746,0,0,1,.82,0,2.1,2.1,0,0,1,2.027,1.758,2.307,2.307,0,0,1,.081.81,2.54,2.54,0,0,0,.988,2.42,2.242,2.242,0,0,1-.067,3.7,2.268,2.268,0,0,0-.911,2.247,2.4,2.4,0,0,1,.006.379,2.076,2.076,0,0,1-2.467,2.305c-.472-.039-.6.1-.593.538.015.968.022,1.937,0,2.905-.012.476.181.614.636.611,2.358-.016,4.716-.022,7.074,0,.552.006.727-.159.722-.716-.025-2.547-.011-5.1-.01-7.642a6.043,6.043,0,0,1,.015-.631.933.933,0,0,1,.953-.912.943.943,0,0,1,1.044.812,3.4,3.4,0,0,1,.052.69v8.78c0,1.316-.282,1.6-1.583,1.6-2.7,0-5.39.019-8.085-.014-.636-.008-.854.17-.825.817.046,1.027.008,1.03,1.051,1.03H98.892c.831,0,.86-.03.86-.845V21.885c0-.811-.059-.871-.857-.871q-29.536,0-59.064,0c-.846,0-.89.046-.891.9v6.758c0,.5.019.994-.522,1.249A1.171,1.171,0,0,1,37,29.56V20.591a2.529,2.529,0,0,1,2.607-1.58q29.719.029,59.438.014c1.9,0,2.682.786,2.682,2.682,0,15.118-.019,30.235.025,45.352a2.532,2.532,0,0,1-2.712,2.73c-3.641-.066-7.285-.014-10.927-.03-.514,0-.713.154-.7.683.03,1.073.019,2.147,0,3.221-.016,1.116-.781,1.668-1.71,1.092a3.506,3.506,0,0,0-4.07,0c-.947.581-1.694.048-1.712-1.076-.016-.989,0-1.979,0-2.969,0-.938,0-.939-.924-.939q-19.581,0-39.162.016A2.8,2.8,0,0,1,37,68.219ZM88.412,49.193v-.46c0-.406-.205-.588-.6-.522A3.63,3.63,0,0,1,84.2,46.776c-.448-.545-.653-.532-1.093.024a3.618,3.618,0,0,1-3.5,1.437c-.614-.074-.811.1-.718.689a3.561,3.561,0,0,1-1.347,3.468c-.689.59-.678.668.016,1.244a3.474,3.474,0,0,1,1.334,3.407c-.1.631.116.856.733.746a3.222,3.222,0,0,1,3.422,1.348c.563.761.651.756,1.235,0a3.2,3.2,0,0,1,3.359-1.356c.655.126.819-.044.763-.768a3.716,3.716,0,0,1,1.351-3.364c.715-.6.709-.7,0-1.306a3.549,3.549,0,0,1-1.34-3.155m-6.33,11.942a1.205,1.205,0,0,0-.083.257Q82,66.621,81.993,71.852c0,.526.273.432.558.262a1.92,1.92,0,0,1,2.131-.064c.636.375.676.323.676-.415v-9.9c0-.178.066-.375-.1-.57a2.187,2.187,0,0,1-3.093.035l-.072-.074" fill="#8fe3ff"/>
      <path id="Trazado_464" data-name="Trazado 464" d="M69.274,36.585H88.911c1.013,0,1.47.3,1.487.962.018.687-.472,1.025-1.494,1.025H49.691c-.981,0-1.405-.331-1.356-1.064a.869.869,0,0,1,.827-.909h.032c.23-.019.463-.012.694-.012H69.274" fill="#8fe3ff"/>
      <path id="Trazado_465" data-name="Trazado 465" d="M65.678,30.791H81.6c.908,0,1.3.3,1.306,1a.91.91,0,0,1-.771,1,4.235,4.235,0,0,1-.878.06H49.986a3.947,3.947,0,0,1-.939-.077,1.011,1.011,0,0,1,.147-1.964,5.19,5.19,0,0,1,.694-.019Z" fill="#8fe3ff"/>
      <path id="Trazado_466" data-name="Trazado 466" d="M51.741,56.135c-.318.992-.618,1.93-.922,2.867a2.818,2.818,0,0,1-.189.467,1.051,1.051,0,0,1-1.4.484.869.869,0,0,1-.5-1.122,1,1,0,0,1,.043-.094,30.326,30.326,0,0,0,1.124-4,29.5,29.5,0,0,0,.59-5,2.793,2.793,0,0,1,.064-.625,1.046,1.046,0,0,1,1.12-.83c.549.015.8.4.878.911.179,1.248.348,2.5.526,3.744a11.7,11.7,0,0,0,.828,3.032c.266.61.609.653,1,.11a6.694,6.694,0,0,0,.513-.936,1.075,1.075,0,0,1,1.075-.629c.5.016.731.331.876.77.314.951.6,1.162,1.606,1.166,1.956.008,3.912,0,5.869,0a4.565,4.565,0,0,1,.573.016.959.959,0,0,1,.937.982v.011a.909.909,0,0,1-.787,1.017.926.926,0,0,1-.105.007c-2.4.041-4.794.12-7.188-.033a2.931,2.931,0,0,1-1.69-.63.4.4,0,0,0-.51-.035c-2.183,1.225-3.232.855-4.217-1.473a1.7,1.7,0,0,0-.113-.176" fill="#8fe3ff"/>
      <path id="Trazado_467" data-name="Trazado 467" d="M60.623,44.368H49.831a3.151,3.151,0,0,1-.751-.055.913.913,0,0,1-.75-.958.9.9,0,0,1,.719-.98,3.57,3.57,0,0,1,.875-.072q10.76,0,21.52,0a3.58,3.58,0,0,1,.814.057.934.934,0,0,1,.791.993.946.946,0,0,1-.819.974,3.333,3.333,0,0,1-.753.043H60.622" fill="#8fe3ff"/>
      <path id="Trazado_468" data-name="Trazado 468" d="M83.7,56.761a3.728,3.728,0,0,1-3.782-3.672v-.07A3.762,3.762,0,1,1,83.7,56.761m1.67-3.743a1.7,1.7,0,0,0-3.39-.061,1.6,1.6,0,0,0,1.463,1.735,1.587,1.587,0,0,0,.195,0,1.637,1.637,0,0,0,1.73-1.536c0-.048,0-.095,0-.143" fill="#8fe3ff"/>
    </g>
  </g>
</svg>
