<svg id="Grupo_263" data-name="Grupo 263" xmlns="http://www.w3.org/2000/svg" xmlns:xlink="http://www.w3.org/1999/xlink" width="381" height="83" viewBox="0 0 381 83">
  <defs>
    <clipPath id="clip-path">
      <rect id="Rectángulo_169" data-name="Rectángulo 169" width="381" height="83" fill="none"/>
    </clipPath>
    <clipPath id="clip-path-2">
      <rect id="Rectángulo_170" data-name="Rectángulo 170" width="56.048" height="60.193" transform="translate(42.977 8)" fill="none"/>
    </clipPath>
  </defs>
  <g id="Grupo_260" data-name="Grupo 260">
    <g id="Grupo_259" data-name="Grupo 259" clip-path="url(#clip-path)">
      <path id="Trazado_392" data-name="Trazado 392" d="M20,0H361a20,20,0,0,1,20,20V63a20,20,0,0,1-20,20H20A20,20,0,0,1,0,63V20A20,20,0,0,1,20,0" fill="#00214a"/>
      <path id="Trazado_393" data-name="Trazado 393" d="M126.861,24.037a3.084,3.084,0,0,0-2.646,1.284,5.976,5.976,0,0,0-.938,3.579q0,4.776,3.584,4.776a11.344,11.344,0,0,0,3.643-.752v2.539a10.124,10.124,0,0,1-3.926.732,5.99,5.99,0,0,1-4.766-1.889,8,8,0,0,1-1.65-5.425,8.866,8.866,0,0,1,.81-3.9,5.868,5.868,0,0,1,2.329-2.568,6.89,6.89,0,0,1,3.56-.894,9.6,9.6,0,0,1,4.18,1.006l-.977,2.461a16.235,16.235,0,0,0-1.611-.664,4.83,4.83,0,0,0-1.592-.283" fill="#a6faff"/>
      <path id="Trazado_394" data-name="Trazado 394" d="M143.229,30.521a5.869,5.869,0,0,1-1.406,4.17,5.1,5.1,0,0,1-3.916,1.5,5.488,5.488,0,0,1-2.774-.688,4.58,4.58,0,0,1-1.846-1.978,6.656,6.656,0,0,1-.644-3.008,5.833,5.833,0,0,1,1.4-4.16,5.133,5.133,0,0,1,3.926-1.485,5.5,5.5,0,0,1,2.774.685,4.555,4.555,0,0,1,1.845,1.962,6.576,6.576,0,0,1,.645,3m-7.549,0a4.579,4.579,0,0,0,.532,2.451,1.9,1.9,0,0,0,1.734.83,1.871,1.871,0,0,0,1.713-.824,4.645,4.645,0,0,0,.523-2.457,4.511,4.511,0,0,0-.527-2.431,2.243,2.243,0,0,0-3.448-.006,4.518,4.518,0,0,0-.527,2.437" fill="#a6faff"/>
      <path id="Trazado_395" data-name="Trazado 395" d="M155.768,36h-2.979V29.623a3.067,3.067,0,0,0-.419-1.772,1.529,1.529,0,0,0-1.338-.591,2.01,2.01,0,0,0-1.807.835,5.175,5.175,0,0,0-.557,2.768V36H145.69V25.082h2.275l.4,1.4h.166a3.148,3.148,0,0,1,1.372-1.2,4.672,4.672,0,0,1,1.987-.4,3.822,3.822,0,0,1,2.891,1.03,4.137,4.137,0,0,1,.986,2.974Z" fill="#a6faff"/>
      <path id="Trazado_396" data-name="Trazado 396" d="M166.451,32.758a3.007,3.007,0,0,1-1.167,2.559,5.766,5.766,0,0,1-3.491.879,10.9,10.9,0,0,1-2.031-.162,7.677,7.677,0,0,1-1.573-.473V33.1a10.38,10.38,0,0,0,1.87.654,7.57,7.57,0,0,0,1.831.264q1.621,0,1.622-.938a.783.783,0,0,0-.215-.571,3.088,3.088,0,0,0-.742-.5q-.528-.279-1.407-.649a8.819,8.819,0,0,1-1.85-.977,2.765,2.765,0,0,1-.86-1.03,3.407,3.407,0,0,1-.268-1.431,2.593,2.593,0,0,1,1.128-2.251,5.5,5.5,0,0,1,3.2-.8,9.065,9.065,0,0,1,3.838.86l-.9,2.148a16.35,16.35,0,0,0-1.533-.576,4.8,4.8,0,0,0-1.455-.225q-1.319,0-1.318.713a.836.836,0,0,0,.425.693,11.443,11.443,0,0,0,1.86.87,8.615,8.615,0,0,1,1.875.966,2.866,2.866,0,0,1,.879,1.036,3.175,3.175,0,0,1,.283,1.4" fill="#a6faff"/>
      <path id="Trazado_397" data-name="Trazado 397" d="M173.375,33.822a6.451,6.451,0,0,0,1.875-.342V35.7a6.686,6.686,0,0,1-2.734.5,3.348,3.348,0,0,1-2.6-.9,3.937,3.937,0,0,1-.815-2.71V27.318h-1.426v-1.26l1.641-1,.859-2.3h1.9v2.324h3.057v2.236h-3.057v5.264a1.161,1.161,0,0,0,.357.937,1.4,1.4,0,0,0,.942.3" fill="#a6faff"/>
      <path id="Trazado_398" data-name="Trazado 398" d="M184.391,36l-.576-1.485h-.078a4.4,4.4,0,0,1-1.548,1.314,5,5,0,0,1-2.075.366,3.355,3.355,0,0,1-2.476-.9,3.449,3.449,0,0,1-.9-2.558,2.882,2.882,0,0,1,1.215-2.564,7.062,7.062,0,0,1,3.667-.913l1.895-.058v-.479a1.485,1.485,0,0,0-1.7-1.66,7.744,7.744,0,0,0-3.076.791l-.987-2.012a8.885,8.885,0,0,1,4.18-.986,5.205,5.205,0,0,1,3.369.957,3.537,3.537,0,0,1,1.172,2.91V36Zm-.879-5.059-1.152.039a3.7,3.7,0,0,0-1.934.469,1.471,1.471,0,0,0-.635,1.308q0,1.26,1.446,1.26a2.286,2.286,0,0,0,1.655-.6,2.093,2.093,0,0,0,.62-1.582Z" fill="#a6faff"/>
      <path id="Trazado_399" data-name="Trazado 399" d="M199.615,36h-2.979V29.623a3.067,3.067,0,0,0-.419-1.772,1.529,1.529,0,0,0-1.338-.591,2.01,2.01,0,0,0-1.807.835,5.175,5.175,0,0,0-.557,2.768V36h-2.978V25.082h2.275l.4,1.4h.166a3.148,3.148,0,0,1,1.372-1.2,4.675,4.675,0,0,1,1.987-.4,3.824,3.824,0,0,1,2.891,1.03,4.133,4.133,0,0,1,.986,2.974Z" fill="#a6faff"/>
      <path id="Trazado_400" data-name="Trazado 400" d="M207.115,36.195q-5.1,0-5.1-5.6a5.972,5.972,0,0,1,1.387-4.253,5.205,5.205,0,0,1,3.975-1.469,7.571,7.571,0,0,1,3.4.742l-.879,2.305c-.469-.189-.9-.344-1.308-.464a4.238,4.238,0,0,0-1.211-.181q-2.323,0-2.325,3.3,0,3.2,2.325,3.2a5.265,5.265,0,0,0,1.591-.23,5.746,5.746,0,0,0,1.465-.717v2.548a4.794,4.794,0,0,1-1.46.635,8.217,8.217,0,0,1-1.86.176" fill="#a6faff"/>
      <path id="Trazado_401" data-name="Trazado 401" d="M212.838,22.26q0-1.455,1.621-1.455t1.621,1.455a1.419,1.419,0,0,1-.4,1.079,1.705,1.705,0,0,1-1.216.386q-1.62,0-1.621-1.465m3.1,13.74h-2.979V25.082h2.979Z" fill="#a6faff"/>
      <path id="Trazado_402" data-name="Trazado 402" d="M226,36l-.576-1.485h-.078a4.406,4.406,0,0,1-1.548,1.314,5,5,0,0,1-2.075.366,3.357,3.357,0,0,1-2.476-.9,3.445,3.445,0,0,1-.9-2.558,2.882,2.882,0,0,1,1.215-2.564,7.061,7.061,0,0,1,3.667-.913l1.9-.058v-.479a1.485,1.485,0,0,0-1.7-1.66,7.74,7.74,0,0,0-3.076.791l-.987-2.012a8.885,8.885,0,0,1,4.18-.986,5.205,5.205,0,0,1,3.369.957,3.537,3.537,0,0,1,1.172,2.91V36Zm-.879-5.059-1.152.039a3.7,3.7,0,0,0-1.934.469,1.469,1.469,0,0,0-.635,1.308q0,1.26,1.446,1.26a2.286,2.286,0,0,0,1.655-.6,2.093,2.093,0,0,0,.62-1.582Z" fill="#a6faff"/>
      <path id="Trazado_403" data-name="Trazado 403" d="M242.379,27.318H239.8V36h-2.979V27.318h-1.64V25.882l1.64-.8v-.8a3.584,3.584,0,0,1,.918-2.725,4.207,4.207,0,0,1,2.94-.859,7.648,7.648,0,0,1,2.744.459l-.762,2.187A5.575,5.575,0,0,0,241,23.06a1.075,1.075,0,0,0-.918.376,1.554,1.554,0,0,0-.283.962v.684h2.578Z" fill="#a6faff"/>
      <path id="Trazado_404" data-name="Trazado 404" d="M254.01,30.521a5.869,5.869,0,0,1-1.406,4.17,5.1,5.1,0,0,1-3.916,1.5,5.488,5.488,0,0,1-2.774-.688,4.58,4.58,0,0,1-1.846-1.978,6.656,6.656,0,0,1-.644-3.008,5.833,5.833,0,0,1,1.4-4.16,5.135,5.135,0,0,1,3.926-1.485,5.5,5.5,0,0,1,2.774.685,4.555,4.555,0,0,1,1.845,1.962,6.576,6.576,0,0,1,.645,3m-7.549,0a4.588,4.588,0,0,0,.532,2.451,1.9,1.9,0,0,0,1.734.83,1.87,1.87,0,0,0,1.713-.824,4.645,4.645,0,0,0,.523-2.457,4.511,4.511,0,0,0-.527-2.431,2.243,2.243,0,0,0-3.448-.006,4.518,4.518,0,0,0-.527,2.437" fill="#a6faff"/>
      <path id="Trazado_405" data-name="Trazado 405" d="M262.565,24.877a4.782,4.782,0,0,1,1.006.088l-.225,2.793a3.368,3.368,0,0,0-.879-.1,3.152,3.152,0,0,0-2.221.733,2.644,2.644,0,0,0-.8,2.05V36h-2.979V25.082h2.256l.44,1.836h.146a4.1,4.1,0,0,1,1.372-1.479,3.376,3.376,0,0,1,1.88-.562" fill="#a6faff"/>
      <path id="Trazado_406" data-name="Trazado 406" d="M275.328,36h-2.979V29.623a3.206,3.206,0,0,0-.395-1.772,1.392,1.392,0,0,0-1.245-.591,1.8,1.8,0,0,0-1.66.84,5.494,5.494,0,0,0-.518,2.763V36h-2.978V25.082h2.275l.4,1.4h.166a3.031,3.031,0,0,1,1.27-1.177,4.12,4.12,0,0,1,1.9-.425,3.432,3.432,0,0,1,3.321,1.6h.263a2.953,2.953,0,0,1,1.294-1.182,4.311,4.311,0,0,1,1.929-.42,3.8,3.8,0,0,1,2.807.952,4.181,4.181,0,0,1,.953,3.052V36h-2.989V29.623a3.205,3.205,0,0,0-.395-1.772,1.392,1.392,0,0,0-1.245-.591,1.86,1.86,0,0,0-1.636.781,4.436,4.436,0,0,0-.542,2.48Z" fill="#a6faff"/>
      <path id="Trazado_407" data-name="Trazado 407" d="M292.125,36l-.576-1.485h-.078a4.406,4.406,0,0,1-1.548,1.314,5,5,0,0,1-2.075.366,3.357,3.357,0,0,1-2.476-.9,3.445,3.445,0,0,1-.9-2.558,2.882,2.882,0,0,1,1.215-2.564,7.062,7.062,0,0,1,3.667-.913l1.895-.058v-.479a1.485,1.485,0,0,0-1.7-1.66,7.74,7.74,0,0,0-3.076.791l-.987-2.012a8.885,8.885,0,0,1,4.18-.986,5.205,5.205,0,0,1,3.369.957,3.537,3.537,0,0,1,1.172,2.91V36Zm-.879-5.059-1.152.039a3.7,3.7,0,0,0-1.934.469,1.469,1.469,0,0,0-.635,1.308q0,1.26,1.446,1.26a2.286,2.286,0,0,0,1.655-.6,2.093,2.093,0,0,0,.62-1.582Z" fill="#a6faff"/>
      <path id="Trazado_408" data-name="Trazado 408" d="M301.7,36.195q-5.1,0-5.1-5.6a5.972,5.972,0,0,1,1.387-4.253,5.205,5.205,0,0,1,3.975-1.469,7.571,7.571,0,0,1,3.4.742l-.879,2.305c-.469-.189-.9-.344-1.308-.464a4.238,4.238,0,0,0-1.211-.181q-2.323,0-2.325,3.3,0,3.2,2.325,3.2a5.265,5.265,0,0,0,1.591-.23,5.746,5.746,0,0,0,1.465-.717v2.548a4.794,4.794,0,0,1-1.46.635,8.217,8.217,0,0,1-1.86.176" fill="#a6faff"/>
      <path id="Trazado_409" data-name="Trazado 409" d="M307.428,22.26q0-1.455,1.621-1.455t1.621,1.455a1.419,1.419,0,0,1-.4,1.079,1.705,1.705,0,0,1-1.216.386q-1.62,0-1.621-1.465m3.1,13.74h-2.979V25.082h2.979Z" fill="#a6faff"/>
      <path id="Trazado_410" data-name="Trazado 410" d="M323.58,30.522a5.871,5.871,0,0,1-1.406,4.17,5.1,5.1,0,0,1-3.916,1.5,5.478,5.478,0,0,1-2.774-.688,4.58,4.58,0,0,1-1.846-1.978,6.652,6.652,0,0,1-.644-3.007,5.835,5.835,0,0,1,1.4-4.161,5.134,5.134,0,0,1,3.926-1.484,5.507,5.507,0,0,1,2.774.684,4.563,4.563,0,0,1,1.845,1.963,6.576,6.576,0,0,1,.645,3m-7.549,0a4.591,4.591,0,0,0,.532,2.451,1.9,1.9,0,0,0,1.734.83,1.873,1.873,0,0,0,1.713-.825,4.641,4.641,0,0,0,.523-2.456,4.515,4.515,0,0,0-.527-2.432,2.242,2.242,0,0,0-3.448-.005,4.513,4.513,0,0,0-.527,2.437m.625-6.641v-.264a27.537,27.537,0,0,0,2.295-2.939h3.34v.2q-.507.509-1.734,1.509t-1.919,1.489Z" fill="#a6faff"/>
      <path id="Trazado_411" data-name="Trazado 411" d="M336.119,36H333.14V29.623a3.067,3.067,0,0,0-.419-1.772,1.529,1.529,0,0,0-1.338-.591,2.01,2.01,0,0,0-1.807.835,5.175,5.175,0,0,0-.557,2.768V36h-2.978V25.082h2.275l.4,1.4h.166a3.148,3.148,0,0,1,1.372-1.2,4.675,4.675,0,0,1,1.987-.4,3.824,3.824,0,0,1,2.891,1.03,4.133,4.133,0,0,1,.986,2.974Z" fill="#a6faff"/>
      <path id="Trazado_412" data-name="Trazado 412" d="M126.559,63.2a3.621,3.621,0,0,1-3.018-1.4h-.156q.156,1.366.156,1.582v4.424h-2.978V52.082h2.422l.42,1.416h.136a3.446,3.446,0,0,1,3.1-1.621,3.542,3.542,0,0,1,3.027,1.494,6.913,6.913,0,0,1,1.094,4.151,8.194,8.194,0,0,1-.513,3.037,4.258,4.258,0,0,1-1.46,1.963,3.74,3.74,0,0,1-2.226.674m-.879-8.936a1.88,1.88,0,0,0-1.611.679,3.9,3.9,0,0,0-.528,2.241V57.5a4.6,4.6,0,0,0,.523,2.52,1.863,1.863,0,0,0,1.655.761q2,0,2-3.3a4.719,4.719,0,0,0-.493-2.417,1.684,1.684,0,0,0-1.548-.806" fill="#a6faff"/>
      <path id="Trazado_413" data-name="Trazado 413" d="M139.313,51.877a4.764,4.764,0,0,1,1,.088l-.224,2.793a3.366,3.366,0,0,0-.88-.1,3.154,3.154,0,0,0-2.221.733,2.644,2.644,0,0,0-.8,2.05V63h-2.978V52.082h2.256l.44,1.836h.146a4.094,4.094,0,0,1,1.371-1.479,3.379,3.379,0,0,1,1.881-.562" fill="#a6faff"/>
      <path id="Trazado_414" data-name="Trazado 414" d="M147.242,63.195a5.636,5.636,0,0,1-4.121-1.455,5.508,5.508,0,0,1-1.485-4.121,6.058,6.058,0,0,1,1.373-4.243,4.885,4.885,0,0,1,3.793-1.5,4.809,4.809,0,0,1,3.6,1.318,4.99,4.99,0,0,1,1.289,3.643v1.445h-7.041a2.869,2.869,0,0,0,.752,1.983,2.647,2.647,0,0,0,1.973.712,8.175,8.175,0,0,0,1.865-.205,9.25,9.25,0,0,0,1.836-.654v2.305a7.024,7.024,0,0,1-1.67.581,10.525,10.525,0,0,1-2.168.19m-.42-9.2a1.887,1.887,0,0,0-1.484.6,2.784,2.784,0,0,0-.616,1.7h4.18a2.481,2.481,0,0,0-.576-1.7,1.95,1.95,0,0,0-1.5-.6" fill="#a6faff"/>
      <path id="Trazado_415" data-name="Trazado 415" d="M161.734,59.758a3.007,3.007,0,0,1-1.167,2.559,5.766,5.766,0,0,1-3.491.879,10.9,10.9,0,0,1-2.031-.162,7.676,7.676,0,0,1-1.573-.473V60.1a10.381,10.381,0,0,0,1.87.654,7.57,7.57,0,0,0,1.831.264q1.621,0,1.622-.938a.783.783,0,0,0-.215-.571,3.089,3.089,0,0,0-.742-.5q-.528-.279-1.407-.649a8.82,8.82,0,0,1-1.85-.977,2.765,2.765,0,0,1-.86-1.03,3.407,3.407,0,0,1-.268-1.431,2.593,2.593,0,0,1,1.128-2.251,5.5,5.5,0,0,1,3.2-.8,9.065,9.065,0,0,1,3.838.86l-.9,2.148a16.354,16.354,0,0,0-1.533-.576,4.8,4.8,0,0,0-1.455-.225q-1.318,0-1.318.713a.835.835,0,0,0,.425.693,11.442,11.442,0,0,0,1.86.87,8.615,8.615,0,0,1,1.875.966,2.867,2.867,0,0,1,.879,1.036,3.175,3.175,0,0,1,.283,1.4" fill="#a6faff"/>
      <path id="Trazado_416" data-name="Trazado 416" d="M169,63.195a5.636,5.636,0,0,1-4.121-1.455,5.508,5.508,0,0,1-1.485-4.121,6.058,6.058,0,0,1,1.373-4.243,4.885,4.885,0,0,1,3.793-1.5,4.809,4.809,0,0,1,3.6,1.318,4.99,4.99,0,0,1,1.289,3.643v1.445h-7.041a2.87,2.87,0,0,0,.752,1.983,2.647,2.647,0,0,0,1.973.712A8.175,8.175,0,0,0,171,60.773a9.25,9.25,0,0,0,1.836-.654v2.305a7.024,7.024,0,0,1-1.67.581,10.525,10.525,0,0,1-2.168.19m-.42-9.2a1.887,1.887,0,0,0-1.484.6,2.784,2.784,0,0,0-.616,1.7h4.18a2.482,2.482,0,0,0-.576-1.7,1.95,1.95,0,0,0-1.5-.6" fill="#a6faff"/>
      <path id="Trazado_417" data-name="Trazado 417" d="M185.953,63h-2.979V56.623a3.067,3.067,0,0,0-.419-1.772,1.529,1.529,0,0,0-1.338-.591,2.01,2.01,0,0,0-1.807.835,5.175,5.175,0,0,0-.557,2.768V63h-2.978V52.082h2.275l.4,1.4h.166a3.148,3.148,0,0,1,1.372-1.2,4.672,4.672,0,0,1,1.987-.405,3.822,3.822,0,0,1,2.891,1.03,4.137,4.137,0,0,1,.986,2.974Z" fill="#a6faff"/>
      <path id="Trazado_418" data-name="Trazado 418" d="M193.453,63.195q-5.1,0-5.1-5.6a5.972,5.972,0,0,1,1.387-4.253,5.205,5.205,0,0,1,3.975-1.469,7.571,7.571,0,0,1,3.4.742l-.879,2.305c-.469-.189-.9-.344-1.308-.464a4.238,4.238,0,0,0-1.211-.181q-2.323,0-2.325,3.3,0,3.2,2.325,3.2a5.265,5.265,0,0,0,1.591-.23,5.746,5.746,0,0,0,1.465-.717v2.548a4.794,4.794,0,0,1-1.46.635,8.217,8.217,0,0,1-1.86.176" fill="#a6faff"/>
      <path id="Trazado_419" data-name="Trazado 419" d="M199.176,49.26q0-1.455,1.621-1.455t1.621,1.455a1.419,1.419,0,0,1-.4,1.079,1.705,1.705,0,0,1-1.216.386q-1.62,0-1.621-1.465M202.281,63H199.3V52.082h2.979Z" fill="#a6faff"/>
      <path id="Trazado_420" data-name="Trazado 420" d="M212.34,63l-.576-1.485h-.078a4.406,4.406,0,0,1-1.548,1.314,5,5,0,0,1-2.075.366,3.357,3.357,0,0,1-2.476-.9,3.445,3.445,0,0,1-.9-2.558,2.882,2.882,0,0,1,1.215-2.564,7.062,7.062,0,0,1,3.667-.913l1.9-.058v-.479a1.485,1.485,0,0,0-1.7-1.66,7.74,7.74,0,0,0-3.076.791l-.987-2.012a8.885,8.885,0,0,1,4.18-.986,5.205,5.205,0,0,1,3.369.957,3.537,3.537,0,0,1,1.172,2.91V63Zm-.879-5.059-1.152.039a3.7,3.7,0,0,0-1.934.469,1.469,1.469,0,0,0-.635,1.308q0,1.26,1.446,1.26a2.286,2.286,0,0,0,1.655-.6,2.093,2.093,0,0,0,.62-1.582Z" fill="#a6faff"/>
      <rect id="Rectángulo_168" data-name="Rectángulo 168" width="2.979" height="15.195" transform="translate(217.486 47.805)" fill="#a6faff"/>
    </g>
  </g>
  <g id="Grupo_262" data-name="Grupo 262">
    <g id="Grupo_261" data-name="Grupo 261" clip-path="url(#clip-path-2)">
      <path id="Trazado_421" data-name="Trazado 421" d="M87.891,30.094V53.721c0,.871,0,.872.9.872h6.295a1.927,1.927,0,0,1,2.164,2.14c0,1.721.021,3.442-.01,5.163A6.589,6.589,0,0,1,92.8,67.924a7.516,7.516,0,0,1-2.218.264q-15.737.006-31.475,0a6.43,6.43,0,0,1-6.682-6.168c-.007-.162-.007-.325,0-.488q-.027-15.644-.008-31.289v-.56c-.012-1.291.143-1.142-1.181-1.147-1.953-.006-3.906,0-5.859,0-1.591,0-2.372-.719-2.377-2.291-.007-1.945-.069-3.894.058-5.845a5.916,5.916,0,0,1,5.175-5.378c.642-.064,1.283-.088,1.927-.088q12.34,0,24.681.012a1.143,1.143,0,0,0,1.243-.726,3.086,3.086,0,0,1,2.839-1.808c.9-.037,1.124-.268,1.167-1.157a3.176,3.176,0,0,1,2.035-2.948,3.255,3.255,0,0,1,3.554.527c.819.668.959.688,1.739.038a3.281,3.281,0,0,1,3.549-.594A3.354,3.354,0,0,1,93.1,11.311c.089.931.229,1.062,1.131,1.1a3.183,3.183,0,0,1,2.93,1.975,3.2,3.2,0,0,1-.479,3.553c-.078.1-.166.186-.251.277a.845.845,0,0,0-.126,1.188.834.834,0,0,0,.126.126,3.222,3.222,0,0,1,.8,3.655,3.313,3.313,0,0,1-3,2.174c-.083.008-.165.018-.247.028-.625.078-.67.17-.36.74a5.3,5.3,0,0,0,2.011,1.991c.855.512,1.725,1,2.573,1.52a1.349,1.349,0,0,1,.777,1.544c-.124.565-.565.89-1.345.992-.062.008-.123.02-.185.028-.771.1-.784.109-.407.808.368.681.714,1.349.064,2.051-.49.53-1.1.554-2.117.02a24.251,24.251,0,0,1-5.434-3.25c-.584-.531-1.084-1.131-1.67-1.737m-2.661.025c-.148.075-.2.084-.217.113-1.794,2.592-4.625,3.694-7.282,5.043a2.04,2.04,0,0,1-.535.161,1.249,1.249,0,0,1-1.417-.752A1.627,1.627,0,0,1,76,33.208c.482-.921.477-.923-.542-1.042a1.3,1.3,0,0,1-1.311-1.024,1.373,1.373,0,0,1,.765-1.492c.992-.606,2-1.189,2.988-1.8a4.572,4.572,0,0,0,1.575-1.65c.369-.638.32-.751-.429-.82a3.383,3.383,0,0,1-3.193-2.361,3.246,3.246,0,0,1,.805-3.443c.3-.321.49-.689.257-1.061a1.587,1.587,0,0,0-1.449-.951c-6.855.036-13.711.021-20.567.021h-.374c-.325-.01-.429.12-.257.411a7.746,7.746,0,0,1,.8,4.1V60.662c0,.456-.007.915.036,1.367a4.029,4.029,0,0,0,1.4,2.756,2.756,2.756,0,0,0,3.556.192,4.041,4.041,0,0,0,1.7-3.37c.044-1.533.012-3.068.015-4.6,0-1.7.721-2.413,2.429-2.413H84.338c.89,0,.892,0,.893-.888V30.119ZM79.562,57.243H65.3c-.851,0-.851,0-.854.876,0,.435-.007.871,0,1.306.04,2,.043,3.991-1.073,5.776-.152.244-.038.339.214.338H90.746a3.651,3.651,0,0,0,3.818-3.324,34.568,34.568,0,0,0,.1-4.159c.018-.811,0-.815-.838-.815H79.562m15.247-41.4c.015-.516-.285-.818-.884-.841a3.55,3.55,0,0,1-1.4-.258,3.385,3.385,0,0,1-2.084-3.129c-.028-.62-.335-.991-.807-.963-.317.019-.51.252-.73.44a3.38,3.38,0,0,1-4.684-.031c-.3-.272-.586-.552-1.038-.343a.988.988,0,0,0-.52.981,3.286,3.286,0,0,1-3.281,3.291h-.068a.946.946,0,0,0-.953.558c-.164.394.059.666.305.937a3.355,3.355,0,0,1,.075,4.743c-.022.022-.044.045-.067.067-.241.272-.487.528-.3.93a.925.925,0,0,0,.907.528,3.308,3.308,0,0,1,3.387,3.227c0,.054,0,.109,0,.163a.924.924,0,0,0,.537.9.864.864,0,0,0,.949-.285,3.377,3.377,0,0,1,4.774-.079l.05.05c.3.253.579.489,1,.313s.464-.527.481-.924a3.369,3.369,0,0,1,3.373-3.365h0c.4-.014.76-.071.925-.482a.9.9,0,0,0-.282-1,3.325,3.325,0,0,1-.087-4.7q.048-.051.1-.1a.873.873,0,0,0,.327-.622M49.008,25.883c.934,0,1.869-.009,2.8,0,.4.006.615-.1.61-.558-.019-1.513.027-3.027-.018-4.538a3.313,3.313,0,0,0-3.421-3.2h-.03a3.321,3.321,0,0,0-3.307,3.286c-.027,1.45.014,2.9-.017,4.352-.012.543.214.674.7.66.892-.025,1.786-.007,2.679-.008m44.432,5.44c.021-.253-.018-.446.057-.571.376-.622.066-.974-.451-1.267a1.007,1.007,0,0,1-.143-.118c-.717-.62-.708-.606-1.526-.108-.315.191-.378.328-.087.588a10.247,10.247,0,0,0,2.151,1.475m-13.558-.1a9.228,9.228,0,0,0,1.9-1.312c.324-.285.306-.454-.075-.688-.782-.48-.768-.5-1.435.113-.153.14-.316.269-.475.4a1.675,1.675,0,0,0-.075,1.433c.039.035.108.035.164.052" fill="#8fe3ff"/>
      <path id="Trazado_422" data-name="Trazado 422" d="M70.147,41.663H81.862a6.025,6.025,0,0,1,.685.016,1.356,1.356,0,0,1,1.225,1.276,1.31,1.31,0,0,1-1.1,1.311,3.771,3.771,0,0,1-.743.053H58.375c-1.209,0-1.852-.484-1.838-1.369.013-.857.626-1.289,1.836-1.289H70.147" fill="#8fe3ff"/>
      <path id="Trazado_423" data-name="Trazado 423" d="M70.131,45.772h11.9c1.089.005,1.748.514,1.739,1.342S83.109,48.43,82,48.431H58.385a3.625,3.625,0,0,1-.863-.082,1.242,1.242,0,0,1-.99-1.264,1.263,1.263,0,0,1,1.016-1.249,3.638,3.638,0,0,1,.8-.059q5.887,0,11.777,0" fill="#8fe3ff"/>
      <path id="Trazado_424" data-name="Trazado 424" d="M64.483,37.554h6.293c1,0,1.537.472,1.537,1.311a1.336,1.336,0,0,1-1.327,1.343,1.412,1.412,0,0,1-.159-.009q-6.387.022-12.773,0a1.355,1.355,0,0,1-1.51-1.182,1.289,1.289,0,0,1-.01-.186c.015-.775.6-1.273,1.531-1.277,2.139-.009,4.278,0,6.418,0" fill="#8fe3ff"/>
      <path id="Trazado_425" data-name="Trazado 425" d="M64.019,28.416H58.042a1.444,1.444,0,0,1-1.264-.54,1.281,1.281,0,0,1,.683-2,3.671,3.671,0,0,1,.985-.108q5.542-.01,11.083,0a4.713,4.713,0,0,1,.682.041,1.3,1.3,0,0,1,1.227,1.37v.009a1.274,1.274,0,0,1-1.323,1.225l-.055,0c-1.453.015-2.906.005-4.358.006H64.019" fill="#8fe3ff"/>
      <path id="Trazado_426" data-name="Trazado 426" d="M61.942,52.536c-1.308,0-2.616.01-3.924,0A1.329,1.329,0,1,1,57.7,49.9a1.274,1.274,0,0,1,.269-.005c1.037-.03,2.076-.01,3.114-.01,1.578,0,3.156-.007,4.733,0a1.377,1.377,0,0,1,1.477.994,1.34,1.34,0,0,1-1.432,1.654c-1.308.02-2.616,0-3.924.005" fill="#8fe3ff"/>
      <path id="Trazado_427" data-name="Trazado 427" d="M61.9,24.43c-1.266,0-2.532.006-3.8,0-.979-.006-1.567-.5-1.573-1.3a1.363,1.363,0,0,1,1.543-1.35q3.859-.023,7.719,0c.96.006,1.539.543,1.537,1.346s-.579,1.294-1.563,1.3c-1.286.008-2.573,0-3.86,0" fill="#8fe3ff"/>
      <path id="Trazado_428" data-name="Trazado 428" d="M86.5,24.426a5.561,5.561,0,1,1,5.744-5.517A5.673,5.673,0,0,1,86.5,24.426m.1-2.659a2.9,2.9,0,1,0-2.918-2.882,2.9,2.9,0,0,0,2.918,2.882" fill="#8fe3ff"/>
    </g>
  </g>
</svg>
