<svg xmlns="http://www.w3.org/2000/svg" xmlns:xlink="http://www.w3.org/1999/xlink" width="381" height="83" viewBox="0 0 381 83">
  <defs>
    <clipPath id="clip-path">
      <rect id="Rect치ngulo_147" data-name="Rect치ngulo 147" width="64.753" height="55.978" fill="#8fe3ff"/>
    </clipPath>
  </defs>
  <g id="Grupo_257" data-name="Grupo 257" transform="translate(-1214 -3629)">
    <rect id="Rect치ngulo_142" data-name="Rect치ngulo 142" width="381" height="83" rx="20" transform="translate(1214 3629)" fill="#00214a"/>
    <text id="Certificado_del_proyecto_avalado_Mineduc" data-name="Certificado del proyecto
avalado Mineduc" transform="translate(1329 3665)" fill="#a6faff" font-size="20" font-family="OpenSans-Bold, Open Sans" font-weight="700"><tspan x="0" y="0">Certificado del proyecto</tspan><tspan x="0" y="27">avalado Mineduc</tspan></text>
    <g id="Grupo_231" data-name="Grupo 231" transform="translate(1251 3648.011)">
      <g id="Grupo_230" data-name="Grupo 230" clip-path="url(#clip-path)">
        <path id="Trazado_364" data-name="Trazado 364" d="M0,14.339a3.41,3.41,0,0,1,.4-.312.988.988,0,0,1,1.538.83c.013.231,0,.463,0,.695q0,16.043,0,32.086c0,1.05,0,1.051,1.035,1.051q19.485,0,38.971-.007c.313,0,.766.182.911-.2a2.7,2.7,0,0,0,.016-1.432c-.033-.172-.214-.18-.364-.184-.21-.005-.421,0-.632,0H5.432c-1.394,0-1.653-.256-1.653-1.653q0-19.864,0-39.729c0-1.315.328-1.643,1.643-1.643H59.236c1.357,0,1.668.314,1.668,1.682q0,12.38,0,24.759a3.668,3.668,0,0,1-.064.814,1.006,1.006,0,0,1-1.98-.114,6.179,6.179,0,0,1-.019-.757q0-11.717,0-23.433c0-.88,0-.883-.855-.883H6.7c-.848,0-.851,0-.851.823q0,18.664-.013,37.329c0,.619.14.832.8.831q17.749-.03,35.5,0c.656,0,.839-.2.805-.828-.048-.9-.024-1.81-.008-2.715.007-.4-.137-.546-.549-.564-1.832-.079-2.545-.812-2.483-2.656a2.489,2.489,0,0,0-.914-2.2,2.335,2.335,0,0,1,.033-3.894,2.286,2.286,0,0,0,.884-2.015c-.071-2.072.755-2.882,2.848-2.809a2.172,2.172,0,0,0,1.911-.83,2.381,2.381,0,0,1,4.026.012,1.922,1.922,0,0,0,1.853.81,3.783,3.783,0,0,1,.82,0,2.1,2.1,0,0,1,2.027,1.758,2.316,2.316,0,0,1,.081.81,2.54,2.54,0,0,0,.988,2.42,2.242,2.242,0,0,1-.067,3.7,2.267,2.267,0,0,0-.911,2.247,2.46,2.46,0,0,1,.006.379,2.076,2.076,0,0,1-2.467,2.305c-.472-.039-.6.1-.593.538.015.968.022,1.937,0,2.905-.012.476.181.614.636.611,2.358-.016,4.716-.022,7.074,0,.552.006.727-.159.722-.716-.025-2.547-.011-5.095-.01-7.642a5.777,5.777,0,0,1,.015-.631.933.933,0,0,1,.953-.912.943.943,0,0,1,1.044.812,3.37,3.37,0,0,1,.052.69q0,4.39,0,8.78c0,1.316-.282,1.6-1.583,1.6-2.7,0-5.39.019-8.085-.014-.636-.008-.854.17-.825.817.046,1.027.008,1.03,1.051,1.03q5.211,0,10.422,0c.831,0,.86-.03.86-.845q0-22.485,0-44.971c0-.811-.059-.871-.857-.871Q32.359,2,2.831,2c-.846,0-.89.046-.891.9q0,3.379,0,6.758c0,.5.019.994-.522,1.249A1.17,1.17,0,0,1,0,10.549V1.58A2.528,2.528,0,0,1,2.607,0Q32.326.029,62.045.014c1.9,0,2.682.786,2.682,2.682,0,15.118-.019,30.235.025,45.352a2.534,2.534,0,0,1-2.712,2.73c-3.641-.066-7.285-.014-10.927-.03-.514,0-.713.154-.7.683.03,1.073.019,2.147,0,3.221-.016,1.116-.781,1.668-1.71,1.092a3.506,3.506,0,0,0-4.07,0c-.947.581-1.694.048-1.712-1.076-.016-.989,0-1.979,0-2.969,0-.938,0-.939-.924-.939q-19.581,0-39.162.016A2.8,2.8,0,0,1,0,49.208V14.339M51.412,30.182c0-.081,0-.27,0-.46,0-.406-.205-.588-.6-.522A3.628,3.628,0,0,1,47.2,27.765c-.448-.545-.653-.532-1.093.024a3.619,3.619,0,0,1-3.5,1.437c-.614-.074-.811.1-.718.689a3.56,3.56,0,0,1-1.347,3.468c-.689.59-.678.668.016,1.244a3.475,3.475,0,0,1,1.334,3.407c-.1.631.116.856.733.746a3.222,3.222,0,0,1,3.422,1.348c.563.761.651.756,1.235,0a3.2,3.2,0,0,1,3.359-1.356c.655.126.819-.044.763-.768a3.718,3.718,0,0,1,1.351-3.364c.715-.6.709-.7,0-1.306a3.549,3.549,0,0,1-1.34-3.155m-6.33,11.942a1.2,1.2,0,0,0-.083.257q-.006,5.232-.009,10.463c0,.526.273.432.558.262a1.921,1.921,0,0,1,2.131-.064c.636.375.676.323.676-.415q0-4.948,0-9.9c0-.178.066-.375-.1-.57a2.187,2.187,0,0,1-3.165-.039" transform="translate(0 0)" fill="#8fe3ff"/>
        <path id="Trazado_365" data-name="Trazado 365" d="M88.083,104.122H107.72c1.013,0,1.47.3,1.487.962.018.687-.472,1.025-1.494,1.025H68.5c-.981,0-1.405-.331-1.356-1.064a.869.869,0,0,1,.859-.91c.23-.019.463-.012.694-.012H88.083" transform="translate(-55.809 -86.548)" fill="#8fe3ff"/>
        <path id="Trazado_366" data-name="Trazado 366" d="M84.484,69.788q7.959,0,15.918,0c.908,0,1.3.3,1.306,1a.91.91,0,0,1-.771,1,4.239,4.239,0,0,1-.878.06q-15.634,0-31.267,0a3.972,3.972,0,0,1-.939-.077A1.011,1.011,0,0,1,68,69.807a5.277,5.277,0,0,1,.694-.019H84.484" transform="translate(-55.806 -58.008)" fill="#8fe3ff"/>
        <path id="Trazado_367" data-name="Trazado 367" d="M72.324,181.269c-.318.992-.618,1.93-.922,2.867a2.857,2.857,0,0,1-.189.467,1.051,1.051,0,0,1-1.4.484.868.868,0,0,1-.455-1.216,30.355,30.355,0,0,0,1.124-4,29.5,29.5,0,0,0,.59-5,2.782,2.782,0,0,1,.064-.625,1.046,1.046,0,0,1,1.12-.83c.549.015.8.4.878.911.179,1.248.348,2.5.526,3.744a11.677,11.677,0,0,0,.828,3.032c.266.61.609.653,1,.11a6.693,6.693,0,0,0,.513-.936,1.077,1.077,0,0,1,1.075-.629c.5.016.731.331.876.77.314.951.6,1.162,1.606,1.166,1.956.008,3.912,0,5.869,0A4.568,4.568,0,0,1,86,181.6a.96.96,0,0,1,.937.993.909.909,0,0,1-.892,1.024c-2.4.041-4.794.12-7.188-.033a2.934,2.934,0,0,1-1.69-.63.4.4,0,0,0-.51-.035c-2.183,1.225-3.232.855-4.217-1.473a1.764,1.764,0,0,0-.113-.176" transform="translate(-57.583 -144.145)" fill="#8fe3ff"/>
        <path id="Trazado_368" data-name="Trazado 368" d="M79.427,140.047q-5.4,0-10.792,0a3.172,3.172,0,0,1-.751-.055.914.914,0,0,1-.75-.958.9.9,0,0,1,.719-.98,3.6,3.6,0,0,1,.875-.072q10.76-.005,21.52,0a3.561,3.561,0,0,1,.814.057.934.934,0,0,1,.791.993.945.945,0,0,1-.819.974,3.367,3.367,0,0,1-.753.043q-5.427,0-10.855,0" transform="translate(-55.804 -114.69)" fill="#8fe3ff"/>
        <path id="Trazado_369" data-name="Trazado 369" d="M258.05,186.612a3.727,3.727,0,0,1-3.782-3.742,3.762,3.762,0,1,1,3.782,3.742m1.67-3.743a1.7,1.7,0,0,0-3.39-.061,1.605,1.605,0,0,0,1.658,1.74,1.636,1.636,0,0,0,1.732-1.679" transform="translate(-211.354 -148.862)" fill="#8fe3ff"/>
      </g>
    </g>
  </g>
</svg>
