<svg id="Grupo_1591" data-name="Grupo 1591" xmlns="http://www.w3.org/2000/svg" xmlns:xlink="http://www.w3.org/1999/xlink" width="77.568" height="86.521" viewBox="0 0 77.568 86.521">
  <defs>
    <clipPath id="clip-path">
      <rect id="Rectángulo_1624" data-name="Rectángulo 1624" width="77.568" height="86.521" fill="#818181"/>
    </clipPath>
  </defs>
  <g id="Grupo_1273" data-name="Grupo 1273" transform="translate(0 0)">
    <g id="Grupo_1272" data-name="Grupo 1272" transform="translate(0 0)" clip-path="url(#clip-path)">
      <path id="Trazado_3844" data-name="Trazado 3844" d="M27.653,0h2.191a4.364,4.364,0,0,0,.479.144,11.647,11.647,0,0,1,7.2,4.179c.439.527.834,1.094,1.154,1.513,1.17-1.189,2.239-2.415,3.457-3.473A11.781,11.781,0,0,1,47.723,0h2.191a.5.5,0,0,0,.148.084,12.191,12.191,0,0,1,9.372,6.905,1.634,1.634,0,0,0,.83.714,10.167,10.167,0,0,1,7.165,10.182,1.079,1.079,0,0,0,.615,1.13,12.363,12.363,0,0,1,5.468,14.661.977.977,0,0,0,.188.842c4.3,3.892,5.021,10.127,2.076,15.28a1.223,1.223,0,0,0,.048,1.437,11.57,11.57,0,0,1-1.349,13.986,1.782,1.782,0,0,0-.367,1.03c-.064,1.062.036,2.139-.1,3.189a12.15,12.15,0,0,1-11.088,10.29,1.194,1.194,0,0,0-1.082.611,12.105,12.105,0,0,1-5.58,4.838,43.758,43.758,0,0,1-4.49,1.341H49.411a1.629,1.629,0,0,0-.307-.12,13.17,13.17,0,0,1-8.781-4.985c-.543-.667-1.01-1.4-1.553-2.151-.168.243-.319.435-.443.643a12.515,12.515,0,0,1-5.409,5.053,42.505,42.505,0,0,1-4.758,1.561H25.8a2.862,2.862,0,0,0-.4-.12,13.257,13.257,0,0,1-9.668-6.063,1.284,1.284,0,0,0-1.166-.611c-6.75-.4-11.671-6.754-11.136-13.144A1.837,1.837,0,0,0,2.95,65.01,11.486,11.486,0,0,1,1.54,51.6a1.95,1.95,0,0,0,.016-2.251A12,12,0,0,1,3.768,34.659a.867.867,0,0,0,.3-1.078A12.3,12.3,0,0,1,9.38,19.1a1.326,1.326,0,0,0,.758-1.385,10.2,10.2,0,0,1,7.085-10,1.919,1.919,0,0,0,.982-.882,13.3,13.3,0,0,1,4.734-5.149A13.966,13.966,0,0,1,27.653,0M13.483,17.5c.236,0,.371.016.5,0,6.363-.846,12.8,4.622,12.981,11.959a1.691,1.691,0,1,1-3.357.132,9.707,9.707,0,0,0-2.315-5.844,7.857,7.857,0,0,0-12.374.164c-2.335,3.018-2.906,6.255-1.158,9.775.579,1.17.367,1.792-.679,2.618A10.886,10.886,0,0,0,5.456,37.76a8.138,8.138,0,0,0-1.369,8.917,8.4,8.4,0,0,0,7.5,5.532c1.166.084,1.912.77,1.884,1.74a1.693,1.693,0,0,1-2.056,1.609,19.124,19.124,0,0,1-3.9-.922,21.131,21.131,0,0,1-2.934-1.581c-.068.1-.14.192-.192.287A8.219,8.219,0,0,0,6.119,63.438a2.227,2.227,0,0,1,.838,2.3A8.318,8.318,0,0,0,7.4,70.71c1.309,3.385,4.65,5.88,7.843,5.612A2.763,2.763,0,0,1,18.3,78.047a9.451,9.451,0,0,0,6.087,4.73c7.7,2.072,14.11-5.417,12.446-12.537a10.138,10.138,0,0,0-9.544-7.9,2.779,2.779,0,0,1-1.509-.579,1.408,1.408,0,0,1-.307-1.78,1.731,1.731,0,0,1,1.8-.994,13.412,13.412,0,0,1,9.1,3.832c.208.2.411.4.73.711V32.407c0-2.958-.683-3.792-3.6-4.391l-.164-.044A1.7,1.7,0,0,1,32.052,26.3a1.667,1.667,0,0,1,1.405-1.569,3.482,3.482,0,0,1,1.253.036c.782.176,1.549.431,2.387.675v-.81c0-3.944-.02-7.883.008-11.827a10.069,10.069,0,0,0-1.357-5.149,8.172,8.172,0,0,0-8.63-4.083,8.575,8.575,0,0,0-5.285,3.812c.419.1.718.164,1.018.243A9.927,9.927,0,0,1,27.326,10.2a1.677,1.677,0,0,1,.144,2.3,1.656,1.656,0,0,1-2.271.255c-.255-.172-.487-.379-.73-.571a6.451,6.451,0,0,0-7.041-.874A6.637,6.637,0,0,0,13.483,17.5M72.905,53c-.3.2-.591.4-.886.6a11.08,11.08,0,0,1-5.987,1.992,1.732,1.732,0,0,1-1.78-1.022,1.68,1.68,0,0,1,1.68-2.347,7.861,7.861,0,0,0,4.594-1.668c4.822-3.756,4.973-10.821-.064-14.282a1.736,1.736,0,0,1-.643-2.622c1.732-3.493,1.158-6.706-1.146-9.7a7.853,7.853,0,0,0-12.478-.1,9.723,9.723,0,0,0-2.239,5.788,1.685,1.685,0,1,1-3.353-.124,15.332,15.332,0,0,1,.164-1.764,12.164,12.164,0,0,1,10.007-10.17,23.6,23.6,0,0,1,3.233-.024,2.285,2.285,0,0,0,.056-.351,6.527,6.527,0,0,0-4.031-5.951,6.441,6.441,0,0,0-6.961.962c-.176.14-.343.291-.523.423a1.682,1.682,0,1,1-2.155-2.575,10.277,10.277,0,0,1,5.261-2.65A8.005,8.005,0,0,0,47.9,3.457a9.08,9.08,0,0,0-7.42,8.8c-.044,4.279-.008,8.562-.008,12.841,0,.124.024.247.04.4.543-.2,1-.415,1.481-.547a7.905,7.905,0,0,1,1.489-.255,1.7,1.7,0,1,1,.3,3.357,3.39,3.39,0,0,0-3.305,3.724q-.006,15.5,0,31c0,.2.04.4.088.818a8.824,8.824,0,0,1,.555-.687,13.334,13.334,0,0,1,9.061-3.92,1.767,1.767,0,0,1,2.084,1.6c.052.994-.718,1.7-1.936,1.772a10.177,10.177,0,0,0-9.169,13.891A9.984,9.984,0,0,0,54.5,82.31a9.725,9.725,0,0,0,5.065-4.734,1.879,1.879,0,0,1,2.052-1.269c4.926.794,10.079-4.674,9.065-10.1a2.9,2.9,0,0,1,.97-2.982A8.049,8.049,0,0,0,72.905,53" transform="translate(0 0.002)" fill="#818181"/>
      <path id="Trazado_3845" data-name="Trazado 3845" d="M13.2,20.307c-.5-.14-.986-.255-1.461-.4A11.857,11.857,0,0,1,3.38,8.915c0-.718.148-1.433.838-1.7A2.522,2.522,0,0,1,5.871,7.2c.734.271.854,1.026.9,1.764a8.2,8.2,0,0,0,3.6,6.546,8.313,8.313,0,0,0,9.9-.192c.224-.172.447-.343.683-.495a1.662,1.662,0,0,1,2.016,2.642,10.757,10.757,0,0,1-5.029,2.595,1.774,1.774,0,0,0-1.6,1.449,8.357,8.357,0,0,1-7.78,5.676,1.73,1.73,0,0,1-1.8-1.637A1.7,1.7,0,0,1,8.473,23.82a5.144,5.144,0,0,0,4.315-2.531,4.3,4.3,0,0,0,.259-.527c.056-.124.092-.259.156-.455" transform="translate(10.111 21.139)" fill="#818181"/>
      <path id="Trazado_3846" data-name="Trazado 3846" d="M16.849,28.375c.028,1.229-.587,2.04-1.593,2.1s-1.72-.714-1.772-1.936c-.192-4.526-3.892-8.6-8.358-8.706a1.683,1.683,0,0,1-1.74-1.776,1.71,1.71,0,0,1,1.94-1.577c4.682.259,8,2.646,10.178,6.718a11.642,11.642,0,0,1,1.345,5.181" transform="translate(10.117 49.279)" fill="#818181"/>
      <path id="Trazado_3847" data-name="Trazado 3847" d="M5.619,23.257a1.672,1.672,0,0,1-1.517-2.6,14.209,14.209,0,0,1,7.36-6.386,27.3,27.3,0,0,1,5.221-1.15,1.724,1.724,0,0,1,2.2,1.521c.088,1.026-.683,1.752-1.964,1.82a11.714,11.714,0,0,0-9.727,5.608c-.4.627-.838,1.217-1.573,1.189" transform="translate(11.449 39.144)" fill="#818181"/>
      <path id="Trazado_3848" data-name="Trazado 3848" d="M10.53,5.158A1.733,1.733,0,0,1,8.894,6.87,1.727,1.727,0,0,1,7.185,5.23,1.724,1.724,0,0,1,8.822,3.517,1.724,1.724,0,0,1,10.53,5.158" transform="translate(21.494 10.523)" fill="#818181"/>
      <path id="Trazado_3849" data-name="Trazado 3849" d="M21.367,20.472a5.048,5.048,0,0,0,4.347,3.413c1.465.18,2.215.818,2.1,1.872-.12,1.11-1.03,1.668-2.487,1.465a8.21,8.21,0,0,1-7.277-6.207.874.874,0,0,0-.79-.71,11.535,11.535,0,0,1-5.556-2.654,1.664,1.664,0,0,1-.539-2.108,1.613,1.613,0,0,1,1.9-.882,4.477,4.477,0,0,1,1.15.675,8.123,8.123,0,0,0,9.468.591,8.266,8.266,0,0,0,4.135-6.682c.012-.144,0-.283.016-.423a1.692,1.692,0,1,1,3.369.116,11.807,11.807,0,0,1-7.121,10.6c-.846.355-1.74.6-2.722.934" transform="translate(32.87 21.034)" fill="#818181"/>
      <path id="Trazado_3850" data-name="Trazado 3850" d="M12.679,28.287A12.339,12.339,0,0,1,23.369,16.52a5.528,5.528,0,0,1,1.178-.032,1.67,1.67,0,0,1,.1,3.329,20.788,20.788,0,0,0-2.076.307,9.227,9.227,0,0,0-6.51,8.087c0,.084,0,.172-.008.255-.072,1.289-.77,2.072-1.788,2.008s-1.621-.882-1.581-2.187" transform="translate(37.925 49.271)" fill="#818181"/>
      <path id="Trazado_3851" data-name="Trazado 3851" d="M14.019,13.088A15.117,15.117,0,0,1,26.48,20.416a1.767,1.767,0,0,1-.339,2.6,1.716,1.716,0,0,1-2.447-.714,11.581,11.581,0,0,0-6.562-5.233,18.389,18.389,0,0,0-3.3-.587c-1.281-.144-2.056-.79-2-1.808.064-1.038.9-1.641,2.183-1.585" transform="translate(35.397 39.144)" fill="#818181"/>
      <path id="Trazado_3852" data-name="Trazado 3852" d="M13.043,6.87A1.73,1.73,0,0,1,11.41,5.154a1.673,1.673,0,1,1,3.345.08A1.729,1.729,0,0,1,13.043,6.87" transform="translate(34.133 10.523)" fill="#818181"/>
    </g>
  </g>
</svg>
