<?xml version="1.0" encoding="utf-8"?>
<!-- Generator: $$$/GeneralStr/196=Adobe Illustrator 27.6.0, SVG Export Plug-In . SVG Version: 6.00 Build 0)  -->
<svg version="1.0" id="Capa_1" xmlns="http://www.w3.org/2000/svg" xmlns:xlink="http://www.w3.org/1999/xlink" x="0px" y="0px"
	 viewBox="0 0 112 82.6" enable-background="new 0 0 112 82.6" xml:space="preserve">
<g>
	<path fill="#22C674" d="M112,17.3c-0.4,0.4-0.9,0.8-1.3,1.2c-20,20-40,40-60,60c-2.7,2.7-5.8,4.2-9.6,4.1c-3.4-0.1-6.3-1.5-8.7-3.9
		C21.8,68.1,11.1,57.4,0.5,46.8c-0.7-0.7-0.6-1.1,0-1.7C5.7,39.9,11,34.7,16.1,29.5c0.7-0.7,1.1-0.6,1.7,0
		c6.7,6.7,13.4,13.4,20.1,20.1c0.5,0.5,1,0.9,1.5,1.3c1.1,0.8,2.9,0.8,4,0c0.6-0.4,1.1-0.9,1.6-1.4C61.2,33.3,77.4,17,93.6,0.8
		c1.1-1.1,1.1-1.1,2.3,0c5,5,10,10,15,15c0.3,0.3,0.7,0.6,1.1,0.9C112,17,112,17.1,112,17.3z"/>
</g>
</svg>
