<svg xmlns="http://www.w3.org/2000/svg" width="49.473" height="49.474" viewBox="0 0 49.473 49.474">
  <g id="Grupo_294" data-name="Grupo 294" transform="translate(-7.266 -7.262)">
    <path id="Trazado_563" data-name="Trazado 563" d="M29.755,44.9a1.5,1.5,0,0,1-1-.385L18.522,35.308a1.5,1.5,0,0,1-.092-2.139l3.821-4.091a1.5,1.5,0,0,1,2.083-.107l4.513,3.937L38.942,21.6a1.552,1.552,0,0,1,1.142-.5,1.5,1.5,0,0,1,1.126.534l3.576,4.253a1.5,1.5,0,0,1,0,1.929L30.9,44.364a1.5,1.5,0,0,1-1.045.532A.8.8,0,0,1,29.755,44.9Zm-8.09-10.8L29.6,41.246,41.679,26.854l-1.652-1.963L30.1,36.012a1.5,1.5,0,0,1-2.106.131l-4.538-3.958Z" fill="#546e7a"/>
    <path id="Trazado_564" data-name="Trazado 564" d="M32,56.736A24.739,24.739,0,0,1,11.685,17.885,1.5,1.5,0,0,1,14.147,19.6a21.729,21.729,0,1,0,6.079-5.872A1.5,1.5,0,1,1,18.6,11.206,24.737,24.737,0,1,1,32,56.736Z" fill="#546e7a"/>
    <path id="Trazado_565" data-name="Trazado 565" d="M16.218,16.446a1.5,1.5,0,0,1-1.02-2.6l.277-.252a1.5,1.5,0,1,1,2.005,2.231l-.243.222a1.5,1.5,0,0,1-1.019.4Z" fill="#546e7a"/>
  </g>
</svg>
