<svg xmlns="http://www.w3.org/2000/svg" width="24.989" height="24.995" viewBox="0 0 24.989 24.995">
  <g id="Grupo_110" data-name="Grupo 110" transform="translate(-2.006 -2.07)">
    <path id="Trazado_268" data-name="Trazado 268" d="M14.5,27.065a12.494,12.494,0,1,1,8.839-3.655A12.465,12.465,0,0,1,14.5,27.065Zm0-23a10.5,10.5,0,1,0,7.425,3.076A10.43,10.43,0,0,0,14.5,4.07Z" fill="#00214a"/>
    <path id="Trazado_269" data-name="Trazado 269" d="M12.2,20.167a1,1,0,0,1-.707-1.707l3.889-3.889-3.889-3.889a1,1,0,0,1,1.414-1.414l4.6,4.6a1,1,0,0,1,0,1.414l-4.6,4.6a1,1,0,0,1-.707.293Z" fill="#00214a"/>
  </g>
</svg>
