<?xml version="1.0" encoding="utf-8"?>
<!-- Generator: $$$/GeneralStr/196=Adobe Illustrator 27.6.0, SVG Export Plug-In . SVG Version: 6.00 Build 0)  -->
<svg version="1.0" id="Capa_1" xmlns="http://www.w3.org/2000/svg" xmlns:xlink="http://www.w3.org/1999/xlink" x="0px" y="0px"
	 viewBox="0 0 25 25" enable-background="new 0 0 25 25" xml:space="preserve">
<g id="Grupo_110" transform="translate(-2.006 -2.07)">
	<path id="Trazado_268" fill="#FFFFFF" d="M14.5,2.1C21.4,2.1,27,7.7,27,14.6s-5.6,12.5-12.5,12.5C7.6,27.1,2,21.5,2,14.6
		c0-3.3,1.3-6.5,3.7-8.8C8,3.4,11.2,2.1,14.5,2.1z M14.5,25.1c5.8,0,10.5-4.7,10.5-10.5S20.3,4.1,14.5,4.1S4,8.8,4,14.6
		C4,17.4,5.1,20,7.1,22C9.1,24,11.7,25.1,14.5,25.1L14.5,25.1z"/>
	<path id="Trazado_269" fill="#FFFFFF" d="M16.8,9c0.6,0,1,0.4,1,1c0,0.3-0.1,0.5-0.3,0.7l-3.9,3.9l3.9,3.9c0.4,0.4,0.4,1,0,1.4
		c-0.4,0.4-1,0.4-1.4,0l-4.6-4.6c-0.4-0.4-0.4-1,0-1.4l4.6-4.6C16.3,9.1,16.6,9,16.8,9L16.8,9z"/>
</g>
</svg>
