<svg id="Grupo_277" data-name="Grupo 277" xmlns="http://www.w3.org/2000/svg" xmlns:xlink="http://www.w3.org/1999/xlink" width="24.988" height="24.988" viewBox="0 0 24.988 24.988">
  <defs>
    <clipPath id="clip-path">
      <rect id="Rectángulo_179" data-name="Rectángulo 179" width="24.988" height="24.988" transform="translate(0 0)" fill="none"/>
    </clipPath>
  </defs>
  <g id="Grupo_276" data-name="Grupo 276" clip-path="url(#clip-path)">
    <path id="Trazado_500" data-name="Trazado 500" d="M12.5,0A12.494,12.494,0,1,1,3.664,3.655,12.494,12.494,0,0,1,12.5,0m0,23a10.5,10.5,0,1,0-7.425-3.076A10.5,10.5,0,0,0,12.5,23Z" fill="#fff"/>
    <path id="Trazado_501" data-name="Trazado 501" d="M14.8,6.9A1,1,0,0,1,15.51,8.6l-3.889,3.889,3.889,3.889A1,1,0,0,1,14.1,17.8L9.5,13.2a1,1,0,0,1,0-1.414l4.6-4.6A1,1,0,0,1,14.8,6.89Z" fill="#fff"/>
  </g>
</svg>
