<svg id="Grupo_1593" data-name="Grupo 1593" xmlns="http://www.w3.org/2000/svg" xmlns:xlink="http://www.w3.org/1999/xlink" width="99.516" height="76.535" viewBox="0 0 99.516 76.535">
  <defs>
    <clipPath id="clip-path">
      <rect id="Rectángulo_1626" data-name="Rectángulo 1626" width="99.515" height="76.535" fill="#fff"/>
    </clipPath>
  </defs>
  <g id="Grupo_1277" data-name="Grupo 1277" transform="translate(0 0)" clip-path="url(#clip-path)">
    <path id="Trazado_3854" data-name="Trazado 3854" d="M0,68.951C1.729,65.6,3.3,62.141,5.231,58.9a21.2,21.2,0,0,0,2.8-11.6c-.188-14.565-.073-29.134-.073-43.7,0-2.6.986-3.6,3.557-3.6H87.952c2.575,0,3.565,1,3.565,3.591q0,24.377.021,48.754a4.675,4.675,0,0,0,.491,2.015c2.246,4.513,4.569,8.993,6.8,13.514a7.9,7.9,0,0,1,.623,2.575,18.453,18.453,0,0,1,.017,2.617A3.356,3.356,0,0,1,96.3,76.483c-.384.038-.777.026-1.161.026q-45.308,0-90.617.026C2.442,76.535.871,75.988,0,74ZM88.52,2.972H10.94V52.247H88.52ZM63.614,67.914H95.608c-2.037-4.014-4.035-7.925-5.991-11.858a1.33,1.33,0,0,0-1.392-.871q-38.506.032-77.017,0a1.262,1.262,0,0,0-1.324.824c-1.84,3.7-3.728,7.387-5.6,11.076-.132.265-.256.538-.393.837H35.863c.5-1.8.969-3.548,1.456-5.29a2.879,2.879,0,0,1,3.215-2.468q9.178-.019,18.357,0a2.907,2.907,0,0,1,3.279,2.515c.483,1.738.961,3.48,1.443,5.239M96.5,70.962H2.946c-.013.252-.034.44-.03.632.009,2.161-.239,2,1.96,2H94.212c2.536,0,2.536,0,2.284-2.63m-35.91-3.01c-.41-1.516-.786-2.985-1.23-4.428a.89.89,0,0,0-.7-.431q-8.928-.038-17.848,0a.9.9,0,0,0-.692.453c-.44,1.439-.811,2.9-1.217,4.407Z" transform="translate(0 0.001)" fill="#fff"/>
  </g>
</svg>
