<svg id="Grupo_1276" data-name="Grupo 1276" xmlns="http://www.w3.org/2000/svg" xmlns:xlink="http://www.w3.org/1999/xlink" width="101.588" height="76.259" viewBox="0 0 101.588 76.259">
  <defs>
    <clipPath id="clip-path">
      <rect id="Rectángulo_1625" data-name="Rectángulo 1625" width="101.588" height="76.259" fill="#818181"/>
    </clipPath>
  </defs>
  <g id="Grupo_1275" data-name="Grupo 1275" transform="translate(0 0)" clip-path="url(#clip-path)">
    <path id="Trazado_3853" data-name="Trazado 3853" d="M101.585,45.276A16.115,16.115,0,0,1,99.52,51.2a13.088,13.088,0,0,1-7.251,5.686c-.217.065-.425.157-.744.273.757,1.242,1,2.6,2.536,3.432a8.111,8.111,0,0,1,3.866,9.173A8.321,8.321,0,0,1,89.77,76.2c-9.792.069-19.579.088-29.37-.018-4.993-.055-9.131-4.268-9.588-9.394-.018-.194-.032-.388-.06-.7H49.574q-16.018,0-32.044.009c-2.813,0-5.288-.707-7.154-2.947a7.516,7.516,0,0,1-1.852-5.492A1.244,1.244,0,0,0,7.7,56.227,13.5,13.5,0,0,1,11.28,30.737a1.427,1.427,0,0,0,1.312-1.048,13.152,13.152,0,0,1,10.84-9.131,1.436,1.436,0,0,0,1.307-1.173C28.319,8.5,35.819,2.036,47.1.309A26.885,26.885,0,0,1,76.815,19.319a1.23,1.23,0,0,0,1.33,1.067,11.853,11.853,0,0,1,11.376,9.565,1.166,1.166,0,0,0,.716.734c6.314,1.367,10.055,5.2,11.21,11.561a.856.856,0,0,0,.139.254Zm-92,8.143a8.714,8.714,0,0,1,6.91-4.263,1.142,1.142,0,0,0,.767-.679,8.349,8.349,0,0,1,7.653-6.05,1,1,0,0,0,1.044-.9,16.891,16.891,0,0,1,32.793.226c.189.757.323,1.529.476,2.272a8.689,8.689,0,0,1,8.24,6.36c.217-.074.346-.111.466-.162a11.684,11.684,0,0,1,12.84,2,2.03,2.03,0,0,0,1.349.36,10.523,10.523,0,0,1,5.82,1.275,2.416,2.416,0,0,0,1.4.254,10.134,10.134,0,0,0-.854-20.179c-1.52-.106-1.991-.624-2.2-2.134a11.036,11.036,0,0,0-.73-3.058,8.261,8.261,0,0,0-8.485-4.919c-2.346.185-2.522-.014-3.164-2.24a29.239,29.239,0,0,0-1.847-5.1A23.352,23.352,0,0,0,48.475,3.569,22.751,22.751,0,0,0,29.811,15.948a33.178,33.178,0,0,0-2.189,5.815c-.508,1.58-.656,1.811-2.259,1.977A15.216,15.216,0,0,0,23.3,24a9.961,9.961,0,0,0-7.829,7.9c-.388,1.617-.813,1.829-2.42,2.078a13.762,13.762,0,0,0-4.318,1.242,9.436,9.436,0,0,0-5.321,8.96c.088,4.268,2.231,7.348,6.166,9.237M33.866,62.7c5.556,0,11.113-.009,16.669,0a1.036,1.036,0,0,0,1.145-.656,9.926,9.926,0,0,1,9.782-6.111,1.121,1.121,0,0,0,.8-.356c.642-.831,1.247-1.7,1.811-2.591a1.65,1.65,0,0,0,.2-.924A5.02,5.02,0,0,0,58.728,47.5c-2.314.277-2.734-.069-2.9-2.392l-.028-.393a13.527,13.527,0,0,0-25.043-6.037,14.163,14.163,0,0,0-1.894,5.478c-.189,1.39-.8,1.834-2.143,1.746a12.05,12.05,0,0,0-1.677-.1c-2.73.212-4.383,1.991-4.753,5.044-.18,1.51-.711,1.944-2.226,1.811-.328-.028-.656-.079-.984-.092a5.028,5.028,0,0,0-5.053,6.318c.674,2.429,2.582,3.806,5.367,3.815,5.487.014,10.979,0,16.466,0M75.323,72.85c4.7,0,9.39.014,14.087,0a5.078,5.078,0,0,0,5.325-4.337c.416-2.494-.993-4.669-3.658-5.6a2.17,2.17,0,0,1-1.492-1.561c-1.182-4.064-4.115-5.9-8.258-5.2a2.118,2.118,0,0,1-2.138-.7A8.474,8.474,0,0,0,64.9,58c-.591,1.515-1.081,1.714-2.688,1.423a6.771,6.771,0,1,0-.979,13.422c4.7.028,9.39,0,14.087,0" transform="translate(-0.002 0)" fill="#818181"/>
  </g>
</svg>
